<?xml version="1.0" encoding="UTF-8"?>
<svg version="1.1" xmlns="http://www.w3.org/2000/svg" width="1024" height="1024">
<path d="M0 0 C16.5 0 33 0 50 0 C53.37794469 9.00785251 53.37794469 9.00785251 55.00195312 13.38916016 C55.36703476 14.37393341 55.73211639 15.35870667 56.10826111 16.37332153 C56.49534744 17.41801605 56.88243378 18.46271057 57.28125 19.5390625 C57.89626122 21.19855423 57.89626122 21.19855423 58.5236969 22.89157104 C59.84941323 26.46927631 61.17477185 30.04711388 62.5 33.625 C62.95196747 34.84517822 63.40393494 36.06535645 63.86959839 37.32250977 C70.20363485 54.42481611 76.51833946 71.53371153 82.77880859 88.66308594 C84.06406376 92.17505467 85.35378859 95.68535704 86.64453125 99.1953125 C91.75681346 113.10176556 96.82407694 127.02362347 101.8515625 140.9609375 C102.45219914 142.62525521 103.0528663 144.28956191 103.65356445 145.95385742 C105.10272663 149.96911196 106.55148123 153.98451331 108 158 C108.02333426 137.69466982 108.04098177 117.38934234 108.05181217 97.08400154 C108.056974 87.65641965 108.06401457 78.22884608 108.07543945 68.80126953 C108.08538972 60.58661896 108.09185425 52.37197442 108.09408849 44.157318 C108.09539502 39.80554578 108.0984772 35.45379079 108.10573006 31.10202408 C108.11249566 27.00962312 108.11461585 22.91724657 108.11310768 18.82484055 C108.11338376 17.31955076 108.1153857 15.81426019 108.11920547 14.30897522 C108.12415106 12.26028019 108.12239559 10.21157219 108.12025452 8.16287231 C108.12117631 7.01431826 108.1220981 5.8657642 108.12304783 4.68240547 C108.18306735 2.02800338 108.18306735 2.02800338 107 0 C122.84 0 138.68 0 155 0 C154.34 0.33 153.68 0.66 153 1 C153.33 26.08 153.66 51.16 154 77 C161.1359197 68.2173296 168.22793312 59.46081593 175.1953125 50.5546875 C179.82686646 44.66087894 184.5819563 38.86615147 189.32080078 33.05859375 C192.15517589 29.58382624 194.98418676 26.10470231 197.8125 22.625 C198.35495361 21.95766846 198.89740723 21.29033691 199.45629883 20.6027832 C207.04898692 11.93048283 207.04898692 11.93048283 213.32885742 2.3984375 C217.73416067 -1.55711493 222.71875424 -0.61275316 228.421875 -0.48828125 C229.63699768 -0.48120651 230.85212036 -0.47413177 232.10406494 -0.46684265 C235.98666842 -0.43884506 239.86783208 -0.37609096 243.75 -0.3125 C246.3814896 -0.28742433 249.01300179 -0.2646099 251.64453125 -0.24414062 C258.09684576 -0.1890004 264.54832003 -0.10531815 271 0 C269.57567584 2.97816718 268.22096735 4.97931682 265.8125 7.25 C261.97420777 10.98604264 258.48073981 14.93143127 255 19 C254.11596463 20.03131791 253.23184351 21.06256231 252.34765625 22.09375 C250.84207352 23.85034728 249.33675341 25.60716741 247.83203125 27.36450195 C232.26624614 45.53823033 232.26624614 45.53823033 225.25 53.25 C222.24239392 56.56439286 219.37570304 59.95659083 216.5625 63.4375 C212.62620434 68.3044435 208.47880267 72.93289834 204.2421875 77.5390625 C201.73418949 80.29174324 199.34476309 83.10812552 197 86 C198.76085116 89.89902757 201.19038412 93.31526657 203.625 96.8125 C204.10227539 97.50263184 204.57955078 98.19276367 205.07128906 98.90380859 C207.95804639 103.07346786 210.85871473 107.23344721 213.7578125 111.39453125 C215.08855709 113.30467676 216.41928589 115.21483326 217.75 117.125 C218.76900391 118.58703857 218.76900391 118.58703857 219.80859375 120.07861328 C224.45506036 126.75408072 229.05400109 133.46017815 233.625 140.1875 C239.46474046 148.77920577 245.3875815 157.30828686 251.359375 165.80859375 C256.18702009 172.68250812 260.97299857 179.58545033 265.75952148 186.48803711 C266.39962158 187.40979736 267.03972168 188.33155762 267.69921875 189.28125 C268.26471436 190.09658203 268.83020996 190.91191406 269.4128418 191.75195312 C270.96961909 194.02329802 270.96961909 194.02329802 272.76879883 196.10742188 C273.17509521 196.73197266 273.5813916 197.35652344 274 198 C273.67 198.99 273.34 199.98 273 201 C266.09489729 201.02534499 259.18980657 201.04286478 252.28466797 201.05493164 C249.93537955 201.05996189 247.58609427 201.0667868 245.23681641 201.07543945 C241.86099474 201.08756218 238.48521445 201.0932414 235.109375 201.09765625 C234.05820496 201.10281754 233.00703491 201.10797882 231.92401123 201.11329651 C230.94329651 201.11337204 229.96258179 201.11344757 228.95214844 201.11352539 C227.6597525 201.11685631 227.6597525 201.11685631 226.34124756 201.12025452 C220.75661525 200.83340862 220.75661525 200.83340862 218.71069336 198.57983398 C218.34081299 197.97469971 217.97093262 197.36956543 217.58984375 196.74609375 C217.16316406 196.06474365 216.73648437 195.38339355 216.296875 194.68139648 C215.62398438 193.57066772 215.62398438 193.57066772 214.9375 192.4375 C213.95905352 190.87373285 212.97853297 189.3112618 211.99609375 187.75 C211.24948486 186.55697266 211.24948486 186.55697266 210.48779297 185.33984375 C208.24467037 181.81209729 205.88304833 178.37169177 203.5 174.9375 C203.04753906 174.28330078 202.59507812 173.62910156 202.12890625 172.95507812 C201.21320617 171.63225571 200.29670362 170.30998841 199.37939453 168.98828125 C197.05844722 165.64283083 194.74667278 162.2910856 192.4375 158.9375 C191.98117187 158.27484131 191.52484375 157.61218262 191.0546875 156.92944336 C187.58424162 151.8776458 184.17847538 146.78509335 180.79125977 141.67724609 C175.94948754 134.39086781 170.97411371 127.19638884 166 120 C160.20428069 124.41578614 154.71536162 128.79376378 153.43804932 136.30419922 C153.21011571 140.35992736 153.16762774 144.37735254 153.1953125 148.4375 C153.18404781 149.92824439 153.17016083 151.41897104 153.15377808 152.90966797 C153.11789211 156.80932217 153.11734689 160.70818999 153.12445068 164.60797119 C153.12536671 168.59686151 153.092461 172.58546199 153.0625 176.57421875 C153.00878108 184.38291686 152.99243843 192.19109507 153 200 C150.0531682 201.4734159 147.40894894 201.1517686 144.11938477 201.17700195 C143.41190094 201.18357315 142.70441711 201.19014435 141.97549438 201.19691467 C139.63079732 201.21665041 137.28616421 201.22830909 134.94140625 201.23828125 C134.1416078 201.24235678 133.34180935 201.2464323 132.51777458 201.25063133 C128.28683606 201.27149048 124.05592999 201.28579441 119.82495117 201.29516602 C115.44868031 201.30624698 111.07291563 201.3406662 106.69682407 201.38033772 C103.33655327 201.40643915 99.97640445 201.41485191 96.61604118 201.41844749 C95.00244657 201.42332811 93.38885793 201.43498389 91.77536201 201.45348549 C89.51983175 201.4777471 87.26562963 201.47693694 85.01000977 201.4699707 C83.72586685 201.47583694 82.44172394 201.48170319 81.1186676 201.48774719 C78 201 78 201 75 197 C70.71 185.12 66.42 173.24 62 161 C36.59 160.67 11.18 160.34 -15 160 C-15.495 162.97 -15.495 162.97 -16 166 C-16.87331276 168.69375647 -17.78088265 171.33650326 -18.765625 173.98828125 C-19.04090027 174.73208542 -19.31617554 175.47588959 -19.59979248 176.24223328 C-20.18159152 177.80406589 -20.76671339 179.36466434 -21.35498047 180.92407227 C-22.25131417 183.31600695 -23.11964734 185.7170319 -23.98828125 188.11914062 C-24.55819041 189.63866156 -25.12974807 191.15756545 -25.703125 192.67578125 C-25.95854065 193.39550613 -26.2139563 194.11523102 -26.47711182 194.85676575 C-28.36199094 199.7129217 -28.36199094 199.7129217 -31.11499023 200.95166016 C-32.06704346 200.9676123 -33.01909668 200.98356445 -34 201 C-34.6684494 201.020056 -35.3368988 201.040112 -36.02560425 201.06077576 C-38.50424818 201.11748212 -40.97780679 201.11234708 -43.45703125 201.09765625 C-44.35999435 201.0962413 -45.26295746 201.09482635 -46.19328308 201.09336853 C-49.06638963 201.08778823 -51.93941716 201.07523934 -54.8125 201.0625 C-56.76497283 201.05748245 -58.71744689 201.05291999 -60.66992188 201.04882812 C-65.44664485 201.03782525 -70.22330904 201.02057418 -75 201 C-74.39151688 197.56576392 -73.51877529 194.47364812 -72.2421875 191.23046875 C-71.87287109 190.28324951 -71.50355469 189.33603027 -71.12304688 188.36010742 C-70.50526367 186.78966675 -70.50526367 186.78966675 -69.875 185.1875 C-68.94378861 182.79225856 -68.01420041 180.39638565 -67.0859375 178 C-66.71242157 177.0361866 -66.71242157 177.0361866 -66.33135986 176.05290222 C-63.32768198 168.28693151 -60.41555058 160.48687829 -57.5 152.6875 C-52.58818116 139.55574041 -47.65847416 126.43083844 -42.7109375 113.3125 C-42.43410378 112.57844059 -42.15727005 111.84438118 -41.87204742 111.08807755 C-40.44912043 107.3150563 -39.02609143 103.54207354 -37.60302734 99.769104 C-37.02701531 98.24190377 -36.4510062 96.71470243 -35.875 95.1875 C-35.58975464 94.43121056 -35.30450928 93.67492111 -35.01062012 92.89571381 C-28.21568019 74.87889501 -21.43117854 56.8588837 -14.75521851 38.79754639 C-9.95629013 25.8172136 -4.99797541 12.90522008 0 0 Z M24 53 C19.12594066 65.27664094 14.52219556 77.6466872 10.00561523 90.05834961 C8.01896195 95.51432757 6.03207024 100.96768701 3.92578125 106.37890625 C3.63582275 107.1270459 3.34586426 107.87518555 3.04711914 108.64599609 C2.31505444 110.5208889 1.57211433 112.3915258 0.828125 114.26171875 C-0.30334321 117.05215418 -0.30334321 117.05215418 1 120 C6.88988016 120.04950439 12.7796387 120.0857692 18.66967773 120.10986328 C20.67262889 120.11990963 22.67556542 120.13354909 24.6784668 120.15087891 C27.56042088 120.17518713 30.44218072 120.18649687 33.32421875 120.1953125 C34.21711105 120.20563507 35.11000336 120.21595764 36.029953 120.22659302 C40.4717257 120.22739134 43.96349427 120.10378748 48 118 C46.68735639 111.51088282 44.89144955 105.46075447 42.59375 99.2578125 C42.26838257 98.36762421 41.94301514 97.47743591 41.60778809 96.56027222 C40.92470174 94.69542357 40.23883298 92.83159194 39.55029297 90.96875 C38.4961737 88.11463999 37.45255928 85.25684467 36.41015625 82.3984375 C35.74280332 80.58050298 35.07485566 78.76278666 34.40625 76.9453125 C34.09473999 76.0922049 33.78322998 75.23909729 33.46228027 74.36013794 C33.16857544 73.56856293 32.87487061 72.77698792 32.57226562 71.96142578 C32.31626587 71.26687286 32.06026611 70.57231995 31.79650879 69.85671997 C30.94987198 67.72791858 30.94987198 67.72791858 29 65 C28.855625 64.2575 28.71125 63.515 28.5625 62.75 C27.84064635 59.22093769 26.48023209 56.28225377 25 53 C24.67 53 24.34 53 24 53 Z " fill="#359F3C" transform="translate(165,399)"/>
<path d="M0 0 C6.0987719 -1.57184843 12.07861212 -2.69985817 18 0 C23.99821004 6.04288189 27.58739216 14.20137013 31.35302734 21.74121094 C33.65458052 26.29518838 36.21201919 30.67491099 38.8125 35.0625 C39.21533203 35.775271 39.61816406 36.48804199 40.03320312 37.22241211 C40.96582499 38.84855881 41.97464817 40.43067204 43 42 C43.66 42 44.32 42 45 42 C44.99476318 41.01193359 44.98952637 40.02386719 44.98413086 39.00585938 C44.96590679 35.3082776 44.9545049 31.61069972 44.94506836 27.91308594 C44.94006769 26.31867808 44.93326499 24.72427475 44.92456055 23.12988281 C44.9123067 20.82616046 44.9067289 18.52249922 44.90234375 16.21875 C44.89718246 15.51633179 44.89202118 14.81391357 44.88670349 14.09020996 C44.88617292 9.31279059 45.32974482 4.73121306 46 0 C51.28 0 56.56 0 62 0 C61.99476318 1.91780273 61.98952637 3.83560547 61.98413086 5.81152344 C61.96800203 12.14982653 61.95651348 18.48812476 61.94818783 24.82644272 C61.94297053 28.66913754 61.93589378 32.51181015 61.92456055 36.35449219 C61.91369073 40.06327788 61.90771447 43.7720422 61.90512276 47.48084259 C61.9032759 48.89541205 61.89966947 50.30998035 61.89426994 51.72454071 C61.88700532 53.70664834 61.88659148 55.6887775 61.88647461 57.67089844 C61.884254 58.79896912 61.88203339 59.92703979 61.87974548 61.08929443 C61.98344404 63.59927066 62.33982513 65.59996606 63 68 C63 69.33333333 63 70.66666667 63 72 C56.06185538 73.54931371 48.75995951 74.69636071 42 72 C36.0607622 66.35420281 32.84280271 58.38524213 29.44873047 51.05273438 C27.49202018 46.92959561 25.20714023 43.06711526 22.8125 39.1875 C22.46155273 38.59122803 22.11060547 37.99495605 21.74902344 37.38061523 C20.02674371 34.47909762 18.4207909 32.4207909 16 30 C16 43.86 16 57.72 16 72 C10.72 72 5.44 72 0 72 C-0.67258044 67.96451739 -1.10663627 64.94554198 -1 61 C-1 60.01 -1 59.02 -1 58 C-0.99154396 56.09986327 -0.98305697 54.19972666 -0.97434998 52.29959106 C-0.96103211 49.08889538 -0.95285682 45.8781938 -0.94506836 42.66748047 C-0.94003343 40.9760679 -0.93320511 39.28465969 -0.92456055 37.59326172 C-0.91239913 35.14810118 -0.90675189 32.70299781 -0.90234375 30.2578125 C-0.89718246 29.50557404 -0.89202118 28.75333557 -0.88670349 27.978302 C-0.88638246 24.95765073 -0.97216005 22.13849448 -1.56860352 19.17138672 C-2 17 -2 17 -1 14 C-0.93339159 11.77694428 -1.00138999 9.57443902 -1.0625 7.3515625 C-0.9947737 4.80336038 -0.56137338 2.48232293 0 0 Z M15 26 C16 28 16 28 16 28 Z M44 44 C44.66 45.32 45.32 46.64 46 48 C45.67 46.68 45.34 45.36 45 44 C44.67 44 44.34 44 44 44 Z " fill="#349C39" transform="translate(753,440)"/>
<path d="M0 0 C3.09244792 0.03255208 6.18489583 0.06510417 9.27734375 0.09765625 C9.60734375 7.02765625 9.93734375 13.95765625 10.27734375 21.09765625 C11.61796875 19.46828125 12.95859375 17.83890625 14.33984375 16.16015625 C15.17515625 15.165 16.01046875 14.16984375 16.87109375 13.14453125 C19.27842431 10.2427396 19.27842431 10.2427396 20.87109375 7.36328125 C22.50612181 4.63243652 23.6592741 2.93474241 26.27734375 1.09765625 C31.5497381 0.02769473 36.96645845 0.58123163 42.27734375 1.09765625 C41.94734375 2.08765625 41.61734375 3.07765625 41.27734375 4.09765625 C40.61734375 4.09765625 39.95734375 4.09765625 39.27734375 4.09765625 C39.02984375 4.65453125 38.78234375 5.21140625 38.52734375 5.78515625 C37.04809557 8.52176538 35.34266936 10.77416494 33.27734375 13.09765625 C32.61734375 13.09765625 31.95734375 13.09765625 31.27734375 13.09765625 C31.01308594 13.68546875 30.74882812 14.27328125 30.4765625 14.87890625 C28.88874277 17.81663136 26.73480833 19.93305575 24.421875 22.31640625 C23.08100632 23.99298999 23.08100632 23.99298999 23.46728516 25.84277344 C24.56718258 28.90445293 26.24874351 31.27835515 28.09375 33.95703125 C28.65762672 34.78089325 28.65762672 34.78089325 29.2328949 35.62139893 C30.42972294 37.36733059 31.63462645 39.10750807 32.83984375 40.84765625 C33.6548368 42.03348327 34.4692961 43.21967731 35.28320312 44.40625 C37.27508403 47.30766308 39.27424408 50.20397346 41.27734375 53.09765625 C45.89339142 42.55839723 49.69179255 31.75083308 53.52734375 20.91015625 C54.4802349 18.21855125 55.43410035 15.52731649 56.39154053 12.83732605 C56.9829842 11.1756152 57.57181913 9.51297304 58.15777588 7.84931946 C60.16468334 2.21031666 60.16468334 2.21031666 61.27734375 1.09765625 C63.80783777 1.02452058 66.31039212 1.00518098 68.83984375 1.03515625 C69.9062207 1.04192383 69.9062207 1.04192383 70.99414062 1.04882812 C72.75524388 1.06064761 74.51630411 1.07858362 76.27734375 1.09765625 C78.829771 8.10593778 81.37409407 15.11712267 83.9128418 22.13037109 C84.77719411 24.51516014 85.64338983 26.89928191 86.51147461 29.28271484 C87.75991912 32.71147086 89.00168427 36.14258291 90.2421875 39.57421875 C90.63075424 40.63694 91.01932098 41.69966125 91.41966248 42.79458618 C91.77996048 43.79517059 92.14025848 44.795755 92.51147461 45.82666016 C92.82902206 46.70158112 93.14656952 47.57650208 93.47373962 48.47793579 C94.27734375 51.09765625 94.27734375 51.09765625 95.27734375 57.09765625 C90.65734375 57.09765625 86.03734375 57.09765625 81.27734375 57.09765625 C78.27734375 47.47265625 78.27734375 47.47265625 78.27734375 44.09765625 C71.67734375 44.09765625 65.07734375 44.09765625 58.27734375 44.09765625 C57.61734375 47.06765625 56.95734375 50.03765625 56.27734375 53.09765625 C55.94734375 54.41765625 55.61734375 55.73765625 55.27734375 57.09765625 C31.57537003 60.27978636 31.57537003 60.27978636 24.69140625 55.18310547 C19.35088429 49.09065563 15.82638144 41.74476931 13.27734375 34.09765625 C11.2593707 35.75854908 10.36198331 36.67159093 9.8449707 39.27416992 C9.81878662 40.0963501 9.79260254 40.91853027 9.765625 41.765625 C9.73017578 42.65830078 9.69472656 43.55097656 9.65820312 44.47070312 C9.62436523 45.86385742 9.62436523 45.86385742 9.58984375 47.28515625 C9.55568359 48.22552734 9.52152344 49.16589844 9.48632812 50.13476562 C9.40387224 52.45530985 9.33893072 54.77646442 9.27734375 57.09765625 C4.98734375 57.09765625 0.69734375 57.09765625 -3.72265625 57.09765625 C-3.74521231 49.81343648 -3.76357426 42.52923566 -3.77446842 35.24498844 C-3.779696 31.86293812 -3.78679136 28.48091285 -3.7980957 25.09887695 C-3.81099892 21.21435848 -3.81588549 17.32985028 -3.8203125 13.4453125 C-3.82547379 12.22554214 -3.83063507 11.00577179 -3.83595276 9.7490387 C-3.83602829 8.62795212 -3.83610382 7.50686554 -3.83618164 6.35180664 C-3.83840225 5.35919327 -3.84062286 4.3665799 -3.84291077 3.34388733 C-3.66529432 0.02619421 -3.35568294 0.12036165 0 0 Z M68.27734375 15.09765625 C65.77024066 21.03681309 63.67672721 26.80043068 62.27734375 33.09765625 C66.23734375 33.09765625 70.19734375 33.09765625 74.27734375 33.09765625 C72.64486955 27.08718307 71.00592044 21.08119096 69.27734375 15.09765625 C68.94734375 15.09765625 68.61734375 15.09765625 68.27734375 15.09765625 Z " fill="#CFD0CD" transform="translate(463.72265625,528.90234375)"/>
<path d="M0 0 C3.898125 0.0309375 3.898125 0.0309375 7.875 0.0625 C7.875 8.9725 7.875 17.8825 7.875 27.0625 C17.445 27.0625 27.015 27.0625 36.875 27.0625 C36.875 18.1525 36.875 9.2425 36.875 0.0625 C40.8040625 0.0315625 40.8040625 0.0315625 44.8125 0 C45.6387085 -0.009104 46.46491699 -0.01820801 47.31616211 -0.02758789 C49.16933759 -0.03473945 51.02249308 0.0122148 52.875 0.0625 C53.875 1.0625 53.875 1.0625 53.99525452 3.87818909 C53.99303391 5.13727585 53.99081329 6.39636261 53.98852539 7.69360352 C53.98867142 8.38625305 53.98881744 9.07890259 53.9889679 9.7925415 C53.98826874 12.09219446 53.98047628 14.39176737 53.97265625 16.69140625 C53.97079208 18.28181412 53.96936817 19.87222257 53.96836853 21.46263123 C53.96454329 25.6564593 53.95471295 29.85025295 53.94366455 34.04406738 C53.93345057 38.32038914 53.92887094 42.59671644 53.92382812 46.87304688 C53.91309068 55.26954884 53.89549384 63.66601618 53.875 72.0625 C48.265 72.0625 42.655 72.0625 36.875 72.0625 C36.875 61.8325 36.875 51.6025 36.875 41.0625 C27.635 41.3925 18.395 41.7225 8.875 42.0625 C8.545 51.9625 8.215 61.8625 7.875 72.0625 C1.935 72.0625 -4.005 72.0625 -10.125 72.0625 C-9.795 69.4225 -9.465 66.7825 -9.125 64.0625 C-9.1113077 62.42403912 -9.14515342 60.78384344 -9.24609375 59.1484375 C-9.29451416 58.2402124 -9.34293457 57.3319873 -9.39282227 56.39624023 C-9.44881592 55.41985596 -9.50480957 54.44347168 -9.5625 53.4375 C-10.13912007 41.78688689 -10.21379418 30.16235328 -10.1875 18.5 C-10.1856369 17.63469666 -10.1837738 16.76939331 -10.18185425 15.87786865 C-10.16971415 10.93937092 -10.15034937 6.0009468 -10.125 1.0625 C-6.93953711 -0.53023144 -3.49300652 -0.03891833 0 0 Z " fill="#35A13B" transform="translate(610.125,439.9375)"/>
<path d="M0 0 C5.55542036 3.79849413 9.13983014 7.48940551 11 14 C11 16.31 11 18.62 11 21 C6.05 21 1.1 21 -4 21 C-4.4125 19.88625 -4.825 18.7725 -5.25 17.625 C-6.23421924 15.37535602 -6.76678591 14.19002629 -8.6875 12.625 C-13.74229073 11.25884034 -17.94747917 10.30764673 -22.9375 12.125 C-26.12328308 13.69792949 -26.12328308 13.69792949 -27.1875 16.4375 C-27.21577709 19.05570787 -27.21577709 19.05570787 -25.59765625 21.00390625 C-21.81774283 23.9084713 -17.85709653 24.5261968 -13.25 25.5 C-3.17543916 27.66737585 5.06784142 30.08224845 11 39 C13.7418633 44.85761706 13.83815065 50.93137815 12 57.0625 C9.64833311 62.64496158 5.23138972 66.36027994 -0.1015625 69.06640625 C-10.14325985 72.84573598 -22.3501052 73.40731883 -32.25390625 68.99609375 C-37.58891129 65.92871894 -42.53451391 61.7623537 -44.8125 55.9140625 C-45.71775032 52.53194673 -46 49.50391674 -46 46 C-40.90209628 45.53830306 -36.08178003 45.27325664 -31 46 C-28.78460122 47.89151007 -27.95218722 49.38017338 -26.859375 52.0546875 C-26.0520881 54.35306562 -26.0520881 54.35306562 -23 56 C-16.57529818 57.41503202 -11.22160319 56.95865286 -5 55 C-4.86463226 53.56510191 -4.76782857 52.12652893 -4.6875 50.6875 C-4.60048828 49.48673828 -4.60048828 49.48673828 -4.51171875 48.26171875 C-4.796553 45.84175518 -4.796553 45.84175518 -6.90625 44.35546875 C-11.88973872 42.17204629 -17.1246233 41.19424458 -22.43164062 40.0703125 C-30.42751031 38.23578844 -37.46106067 35.15755818 -42 28 C-44.6097297 22.65626776 -44.21941865 17.68158762 -43 12 C-40.91883379 5.94677943 -36.45332626 2.13420708 -31 -1 C-22.07804361 -4.69965469 -8.55183213 -4.82105277 0 0 Z " fill="#349D3A" transform="translate(579,442)"/>
<path d="M0 0 C6.93 0 13.86 0 21 0 C21.66644531 1.88976562 22.33289063 3.77953125 23.01953125 5.7265625 C27.9394933 19.65736532 32.9058204 33.56934468 38 47.4375 C38.23079254 48.06593811 38.46158508 48.69437622 38.69937134 49.34185791 C39.36142903 51.14350953 40.02444906 52.94480743 40.6875 54.74609375 C41.28691406 56.37587158 41.28691406 56.37587158 41.8984375 58.03857422 C42.84703498 60.5887709 43.8257202 63.12461634 44.8125 65.66015625 C46 69 46 69 46 72 C40.06 72 34.12 72 28 72 C24 59.25 24 59.25 24 57 C15.09 57 6.18 57 -3 57 C-3.99 60.3 -4.98 63.6 -6 67 C-6.66 68.65 -7.32 70.3 -8 72 C-13.94 72 -19.88 72 -26 72 C-25.28714844 70.06640625 -24.57429688 68.1328125 -23.83984375 66.140625 C-19.31398846 53.84922688 -14.79738055 41.55848805 -10.50927734 29.18164062 C-7.11843215 19.41370621 -3.54847754 9.71162275 0 0 Z M10 16 C9.79842285 16.60473145 9.5968457 17.20946289 9.38916016 17.83251953 C6.59277344 26.22167969 3.79638672 34.61083984 1 43 C7.27 43 13.54 43 20 43 C17.03 34.09 14.06 25.18 11 16 C10.67 16 10.34 16 10 16 Z " fill="#349D39" transform="translate(484,440)"/>
<path d="M0 0 C0.83265381 0.00523682 1.66530762 0.01047363 2.52319336 0.01586914 C3.42231445 0.0190918 4.32143555 0.02231445 5.24780273 0.02563477 C6.66609375 0.03820312 6.66609375 0.03820312 8.11303711 0.05102539 C9.06243164 0.05553711 10.01182617 0.06004883 10.98999023 0.06469727 C13.34356776 0.07652429 15.69702188 0.09300514 18.05053711 0.11352539 C20.5910804 7.07667624 23.12980533 14.04048731 25.66631699 21.00510788 C26.8446323 24.24029366 28.02353375 27.47526314 29.20385742 30.7097168 C30.5660421 34.442611 31.92552879 38.17648509 33.28491211 41.91040039 C33.91015778 43.62208405 33.91015778 43.62208405 34.54803467 45.36834717 C42.05053711 65.9988126 42.05053711 65.9988126 42.05053711 69.11352539 C42.71053711 69.44352539 43.37053711 69.77352539 44.05053711 70.11352539 C43.72053711 70.77352539 43.39053711 71.43352539 43.05053711 72.11352539 C37.44053711 72.11352539 31.83053711 72.11352539 26.05053711 72.11352539 C22.17553711 62.61352539 22.17553711 62.61352539 21.05053711 58.11352539 C12.14053711 57.78352539 3.23053711 57.45352539 -5.94946289 57.11352539 C-6.27946289 59.09352539 -6.60946289 61.07352539 -6.94946289 63.11352539 C-8.12587224 66.20337163 -9.54177468 69.11651179 -10.94946289 72.11352539 C-16.55946289 72.11352539 -22.16946289 72.11352539 -27.94946289 72.11352539 C-22.68099951 55.66520413 -16.87933908 39.4184259 -11.01196289 23.17602539 C-10.62380402 22.09868134 -10.23564514 21.02133728 -9.83572388 19.91134644 C-8.72199962 16.82258143 -7.60410249 13.73536337 -6.48461914 10.64868164 C-6.14325928 9.70179474 -5.80189941 8.75490784 -5.45019531 7.77932739 C-5.13550293 6.91516205 -4.82081055 6.0509967 -4.49658203 5.16064453 C-4.08310265 4.0201339 -4.08310265 4.0201339 -3.66127014 2.85658264 C-2.5555081 0.14881794 -2.5555081 0.14881794 0 0 Z M7.05053711 16.11352539 C5.71251446 20.23701939 4.3809141 24.36255892 3.05053711 28.48852539 C2.47819336 30.25196289 2.47819336 30.25196289 1.89428711 32.05102539 C1.53334961 33.17250977 1.17241211 34.29399414 0.80053711 35.44946289 C0.46538086 36.48635254 0.13022461 37.52324219 -0.21508789 38.59155273 C-1.04265583 40.9957798 -1.04265583 40.9957798 -0.94946289 43.11352539 C4.99053711 43.44352539 10.93053711 43.77352539 17.05053711 44.11352539 C14.62765305 34.5565938 11.40487694 25.37324019 8.05053711 16.11352539 C7.72053711 16.11352539 7.39053711 16.11352539 7.05053711 16.11352539 Z " fill="#339A38" transform="translate(699.949462890625,439.886474609375)"/>
<path d="M0 0 C1.84578705 -0.27277641 3.70351022 -0.46533217 5.5625 -0.625 C6.59503906 -0.74101563 7.62757813 -0.85703125 8.69140625 -0.9765625 C14.20205795 0.64995807 16.11105225 5.27095079 19 10 C19.96957642 11.52101318 19.96957642 11.52101318 20.95874023 13.07275391 C22.97522555 16.24288379 24.95974432 19.43055577 26.9375 22.625 C29.268125 26.37875 31.59875 30.1325 34 34 C34.33 22.78 34.66 11.56 35 0 C38.96 0 42.92 0 47 0 C47.16716745 7.81441493 47.3277719 15.62892599 47.48217773 23.44360352 C47.53569066 26.10444815 47.59102682 28.76525675 47.64819336 31.42602539 C47.72984579 35.24096908 47.80503326 39.0559925 47.87890625 42.87109375 C47.90594131 44.06899033 47.93297638 45.2668869 47.96083069 46.50108337 C47.98092697 47.6021492 48.00102325 48.70321503 48.02172852 49.83764648 C48.04171402 50.81249496 48.06169952 51.78734344 48.08229065 52.79173279 C48 55 48 55 47 56 C44.05078125 56.4140625 44.05078125 56.4140625 40.3125 56.625 C38.48138672 56.76808594 38.48138672 56.76808594 36.61328125 56.9140625 C32.54217799 55.8841834 32.14733948 55.39208181 29.8984375 52.0703125 C28.90859604 50.39397609 27.94296705 48.70314504 27 47 C26.03803905 45.38004285 25.07580196 43.76024963 24.11328125 42.140625 C23.17660353 40.51218668 22.24300961 38.8819707 21.3125 37.25 C20.37141112 35.60919293 19.43001396 33.96856263 18.48828125 32.328125 C17.87786987 31.25933105 17.87786987 31.25933105 17.25512695 30.16894531 C15.86328439 27.76374606 14.42972521 25.38287536 13 23 C12.67 33.89 12.34 44.78 12 56 C8.04 56 4.08 56 0 56 C-0.95877058 53.12368826 -1.12653504 51.31916617 -1.12939453 48.33251953 C-1.13254669 47.38788849 -1.13569885 46.44325745 -1.13894653 45.47000122 C-1.1369223 44.45122894 -1.13489807 43.43245667 -1.1328125 42.3828125 C-1.13376923 41.33350555 -1.13472595 40.28419861 -1.13571167 39.20309448 C-1.13639249 36.98223816 -1.13454503 34.76137985 -1.13037109 32.54052734 C-1.12503218 29.1454621 -1.1303139 25.75052981 -1.13671875 22.35546875 C-1.13605774 20.19791638 -1.13477611 18.04036408 -1.1328125 15.8828125 C-1.13483673 14.86808868 -1.13686096 13.85336487 -1.13894653 12.80789185 C-1.13579437 11.85695648 -1.13264221 10.90602112 -1.12939453 9.92626953 C-1.12859894 9.09370636 -1.12780334 8.26114319 -1.12698364 7.40335083 C-0.99236213 4.85544209 -0.55803006 2.4867459 0 0 Z " fill="#D2D2D0" transform="translate(775,530)"/>
<path d="M0 0 C0 18.48 0 36.96 0 56 C-3.96 56 -7.92 56 -12 56 C-12 48.08 -12 40.16 -12 32 C-16.455 32.495 -16.455 32.495 -21 33 C-23.02004839 33.060049 -25.04172117 33.08807948 -27.0625 33.0625 C-28.00222656 33.05347656 -28.94195313 33.04445313 -29.91015625 33.03515625 C-30.59980469 33.02355469 -31.28945313 33.01195312 -32 33 C-31.99476318 33.6612085 -31.98952637 34.32241699 -31.98413086 35.00366211 C-31.96342344 37.98159851 -31.95035988 40.95951982 -31.9375 43.9375 C-31.92912109 44.97841797 -31.92074219 46.01933594 -31.91210938 47.09179688 C-31.90888672 48.08115234 -31.90566406 49.07050781 -31.90234375 50.08984375 C-31.89710693 51.00628662 -31.89187012 51.92272949 -31.88647461 52.86694336 C-32 55 -32 55 -33 56 C-35.01964199 56.07244053 -37.04167124 56.08377188 -39.0625 56.0625 C-40.71958984 56.04896484 -40.71958984 56.04896484 -42.41015625 56.03515625 C-43.26480469 56.02355469 -44.11945312 56.01195312 -45 56 C-46.28355258 53.43289484 -46.0818427 51.68804033 -46.02172852 48.81591797 C-46.00163223 47.73494843 -45.98153595 46.65397888 -45.96083069 45.54025269 C-45.93379562 44.36939117 -45.90676056 43.19852966 -45.87890625 41.9921875 C-45.85529526 40.79643097 -45.83168427 39.60067444 -45.80735779 38.36868286 C-45.73058708 34.53733846 -45.64662032 30.70618941 -45.5625 26.875 C-45.50929275 24.28256175 -45.45655228 21.69011387 -45.40429688 19.09765625 C-45.27495376 12.73164638 -45.1391553 6.36580264 -45 0 C-41.04 0 -37.08 0 -33 0 C-32.67 6.6 -32.34 13.2 -32 20 C-25.4 20.33 -18.8 20.66 -12 21 C-12 14.07 -12 7.14 -12 0 C-3 -1 -3 -1 0 0 Z " fill="#D2D2D1" transform="translate(707,530)"/>
<path d="M0 0 C3.86726905 3.17975455 6.15722249 6.34456207 8 11 C8.04600959 12.66603148 8.05346346 14.33419106 8 16 C6.23050905 16.10815225 4.45912513 16.18566083 2.6875 16.25 C1.20830078 16.31960938 1.20830078 16.31960938 -0.30078125 16.390625 C-3 16 -3 16 -4.85546875 14.109375 C-6 12 -6 12 -6 10 C-13.18995898 8.7749276 -13.18995898 8.7749276 -20 11 C-20 12.65 -20 14.3 -20 16 C-15.29750307 17.60157504 -10.60169837 19.11483824 -5.8125 20.4375 C0.02640156 22.17829053 4.73939667 24.68006825 8 30 C9.70108067 35.10324201 9.56521247 39.31873434 7.3125 44.1875 C4.43670383 49.42266415 0.63710981 52.16248907 -5 54 C-13.24091462 54.74680575 -22.22822793 55.48599256 -29 50 C-34.1435307 45.30373284 -35.12014686 40.644861 -36 34 C-26.92307692 32.46153846 -26.92307692 32.46153846 -23 35 C-22.29788106 36.65204456 -21.63028587 38.31923769 -21 40 C-17.48170509 42.84169974 -13.29554071 42.20454956 -9 42 C-7.515 41.505 -7.515 41.505 -6 41 C-5.67 39.02 -5.34 37.04 -5 35 C-10.90112713 32.6858325 -16.83889084 30.85055834 -22.94921875 29.16015625 C-27.18247156 27.55032772 -29.9873571 25.25707394 -32.8125 21.75 C-34.72829417 17.31342402 -34.71423618 13.43469188 -33.37890625 8.8828125 C-31.02001063 3.32630282 -27.43758055 0.47452396 -22 -2 C-14.71685191 -4.2869085 -6.67608088 -3.72549156 0 0 Z " fill="#D1D2CF" transform="translate(645,532)"/>
<path d="M0 0 C0.33 0.66 0.66 1.32 1 2 C4.465 1.505 4.465 1.505 8 1 C8.33 7.93 8.66 14.86 9 22 C10.711875 19.999375 12.42375 17.99875 14.1875 15.9375 C15.02849243 14.96828613 15.02849243 14.96828613 15.88647461 13.97949219 C18.44868478 10.99496933 20.50051189 8.23039642 22.25 4.6875 C25.32744957 1.67999246 26.53889435 1.63613537 30.69238281 1.53637695 C33.80984065 1.57478874 36.8918657 1.75369502 40 2 C40 2.99 40 3.98 40 5 C39.34 5 38.68 5 38 5 C37.67322266 5.804375 37.67322266 5.804375 37.33984375 6.625 C35.52939791 9.83418679 33.08246585 12.34532933 30.5625 15 C28.69175885 16.9862797 26.84152855 18.98608467 25 21 C24.34902344 21.680625 23.69804688 22.36125 23.02734375 23.0625 C22.68832031 23.701875 22.34929688 24.34125 22 25 C23.22457192 28.93300227 25.23421589 32.02629067 27.58984375 35.37890625 C28.29173828 36.38244141 28.99363281 37.38597656 29.71679688 38.41992188 C30.44962891 39.45697266 31.18246094 40.49402344 31.9375 41.5625 C33.03094727 43.12387695 33.03094727 43.12387695 34.14648438 44.71679688 C37.04714841 48.85110721 39.94913504 52.97469194 43 57 C40.62420322 59.37579678 36.19650957 58.95255867 33.00830078 59.0859375 C29.91855761 58.9569845 27.80476234 58.67491464 25.39306641 56.65234375 C22.37930152 53.05345144 20.14281548 49.00005042 17.9765625 44.85107422 C16.737282 42.50201803 15.32335467 40.2873337 13.875 38.0625 C13.25625 37.051875 12.6375 36.04125 12 35 C9.98202695 36.66089283 9.08463956 37.57393468 8.56762695 40.17651367 C8.54144287 40.99869385 8.51525879 41.82087402 8.48828125 42.66796875 C8.45283203 43.56064453 8.41738281 44.45332031 8.38085938 45.37304688 C8.34702148 46.76620117 8.34702148 46.76620117 8.3125 48.1875 C8.27833984 49.12787109 8.24417969 50.06824219 8.20898438 51.03710938 C8.12652849 53.3576536 8.06158697 55.67880817 8 58 C3.71 58 -0.58 58 -5 58 C-5 39.52 -5 21.04 -5 2 C-3.35 2 -1.7 2 0 2 C0 1.34 0 0.68 0 0 Z " fill="#D2D2D0" transform="translate(839,528)"/>
<path d="M0 0 C4.95 0 9.9 0 15 0 C17.75275265 6.80307853 20.37999241 13.63549379 22.890625 20.53125 C23.24010193 21.48898315 23.58957886 22.44671631 23.949646 23.43347168 C24.67983243 25.43646277 25.40917341 27.43976226 26.13769531 29.44335938 C27.25757528 32.52081705 28.3826014 35.59636316 29.5078125 38.671875 C30.2190636 40.62488582 30.9300122 42.57800684 31.640625 44.53125 C32.14677338 45.91237976 32.14677338 45.91237976 32.66314697 47.32141113 C32.97056824 48.16989624 33.2779895 49.01838135 33.59472656 49.89257812 C33.86690002 50.63963013 34.13907349 51.38668213 34.41949463 52.15637207 C35 54 35 54 35 56 C30.38 56 25.76 56 21 56 C18 46.375 18 46.375 18 43 C8.1 43.495 8.1 43.495 -2 44 C-3.32 47.96 -4.64 51.92 -6 56 C-10.62 56 -15.24 56 -20 56 C-17.35306681 47.93526376 -14.5284849 39.93540315 -11.6875 31.9375 C-11.44421967 31.25178925 -11.20093933 30.56607849 -10.95028687 29.85958862 C-7.4031024 19.8661671 -3.77943983 9.90826118 0 0 Z M7 14 C5.02 19.94 3.04 25.88 1 32 C5.29 32 9.58 32 14 32 C12.02 26.06 10.04 20.12 8 14 C7.67 14 7.34 14 7 14 Z " fill="#D2D2D0" transform="translate(733,530)"/>
<path d="M0 0 C1.93166016 0.01740234 1.93166016 0.01740234 3.90234375 0.03515625 C5.19269531 0.04417969 6.48304688 0.05320312 7.8125 0.0625 C8.81152344 0.07410156 9.81054688 0.08570313 10.83984375 0.09765625 C15.16060151 10.03861875 18.90563787 20.17801287 22.62573242 30.35522461 C23.66232588 33.18742966 24.70697573 36.0165823 25.75195312 38.84570312 C26.4132492 40.64956047 27.0740741 42.45359064 27.734375 44.2578125 C28.20300713 45.52335716 28.20300713 45.52335716 28.68110657 46.81446838 C28.96527939 47.59636032 29.24945221 48.37825226 29.54223633 49.18383789 C29.79362869 49.86934219 30.04502106 50.5548465 30.30403137 51.26112366 C30.83984375 53.09765625 30.83984375 53.09765625 30.83984375 56.09765625 C26.54984375 56.09765625 22.25984375 56.09765625 17.83984375 56.09765625 C16.10420714 51.64537103 14.78374228 47.81714891 13.83984375 43.09765625 C7.23984375 43.09765625 0.63984375 43.09765625 -6.16015625 43.09765625 C-6.63453125 44.87140625 -7.10890625 46.64515625 -7.59765625 48.47265625 C-9.03515625 53.84765625 -9.03515625 53.84765625 -10.16015625 56.09765625 C-14.45015625 56.09765625 -18.74015625 56.09765625 -23.16015625 56.09765625 C-21.78276241 49.04394992 -19.63032437 42.60281381 -17.03515625 35.91015625 C-16.22935969 33.80120467 -15.42469977 31.6918185 -14.62109375 29.58203125 C-14.21342773 28.51404297 -13.80576172 27.44605469 -13.38574219 26.34570312 C-11.06210598 20.1876043 -8.84794996 13.98932056 -6.63623047 7.7902832 C-6.32443848 6.92363037 -6.01264648 6.05697754 -5.69140625 5.1640625 C-5.28245117 4.01852905 -5.28245117 4.01852905 -4.86523438 2.84985352 C-3.65654378 -0.15387655 -3.4937839 0.10796613 0 0 Z M2.83984375 14.09765625 C2.00097319 16.53337684 1.16857846 18.97098842 0.33984375 21.41015625 C0.10136719 22.10044922 -0.13710938 22.79074219 -0.3828125 23.50195312 C-1.39223888 26.48697114 -2.16015625 28.92424539 -2.16015625 32.09765625 C1.79984375 32.09765625 5.75984375 32.09765625 9.83984375 32.09765625 C8.20736955 26.08718307 6.56842044 20.08119096 4.83984375 14.09765625 C4.17984375 14.09765625 3.51984375 14.09765625 2.83984375 14.09765625 Z " fill="#D2D1D0" transform="translate(906.16015625,529.90234375)"/>
<path d="M0 0 C1.65322266 0.01740234 1.65322266 0.01740234 3.33984375 0.03515625 C4.99693359 0.04869141 4.99693359 0.04869141 6.6875 0.0625 C7.54214844 0.07410156 8.39679687 0.08570313 9.27734375 0.09765625 C9.3023999 1.25813477 9.32745605 2.41861328 9.35327148 3.61425781 C9.44750147 7.92312507 9.5476841 12.23183698 9.6496582 16.54052734 C9.69294808 18.40474817 9.73462736 20.26900713 9.7746582 22.13330078 C9.83250488 24.81424445 9.8961578 27.49499725 9.9609375 30.17578125 C9.97764999 31.0082135 9.99436249 31.84064575 10.01158142 32.69830322 C10.03152664 33.47881042 10.05147186 34.25931763 10.07202148 35.06347656 C10.08756577 35.74742493 10.10311005 36.43137329 10.11912537 37.13604736 C10.28656191 39.21194398 10.71899403 41.0944037 11.27734375 43.09765625 C15.95216667 44.59359958 20.63336364 44.64564962 25.27734375 43.09765625 C26.41037669 38.49697802 26.49601983 34.00662124 26.59375 29.296875 C26.6145311 28.46050003 26.63531219 27.62412506 26.65672302 26.7624054 C26.72185409 24.10340204 26.78093325 21.44430397 26.83984375 18.78515625 C26.88306367 16.97720394 26.92667905 15.16926103 26.97070312 13.36132812 C27.07749791 8.94020003 27.178867 4.51897713 27.27734375 0.09765625 C31.56734375 0.09765625 35.85734375 0.09765625 40.27734375 0.09765625 C40.35201038 5.34461424 40.40618796 10.59125668 40.44213867 15.83862305 C40.45714018 17.62025344 40.47754808 19.40184744 40.50366211 21.18334961 C40.54042884 23.7577416 40.5571566 26.33164155 40.5703125 28.90625 C40.58579636 29.69100204 40.60128021 30.47575409 40.61723328 31.2842865 C40.61930295 38.22703215 39.3945176 44.53476159 34.90234375 49.97265625 C27.15064521 56.24784079 21.13802287 56.85533741 11.27734375 56.09765625 C5.58613846 54.63747066 2.36495592 51.61744562 -0.8125 46.78125 C-2.40527692 43.83495449 -2.85900649 41.2944211 -2.94384766 38.00927734 C-2.96702057 37.1918808 -2.99019348 36.37448425 -3.0140686 35.53231812 C-3.03391815 34.65411407 -3.0537677 33.77591003 -3.07421875 32.87109375 C-3.09737152 31.96767242 -3.12052429 31.0642511 -3.14437866 30.13345337 C-3.1919739 28.22541806 -3.23721329 26.31732273 -3.28027344 24.40917969 C-3.34755692 21.47698484 -3.42525006 18.54519056 -3.50390625 15.61328125 C-3.54880426 13.76173385 -3.593096 11.91017163 -3.63671875 10.05859375 C-3.66061676 9.17634125 -3.68451477 8.29408875 -3.70913696 7.38510132 C-3.7527151 5.28973456 -3.74323133 3.19337512 -3.72265625 1.09765625 C-2.72265625 0.09765625 -2.72265625 0.09765625 0 0 Z " fill="#D2D2D0" transform="translate(563.72265625,529.90234375)"/>
<path d="M0 0 C3.898125 0.0309375 3.898125 0.0309375 7.875 0.0625 C7.875 8.9725 7.875 17.8825 7.875 27.0625 C17.445 27.0625 27.015 27.0625 36.875 27.0625 C36.875 18.1525 36.875 9.2425 36.875 0.0625 C40.8040625 0.0315625 40.8040625 0.0315625 44.8125 0 C45.6387085 -0.009104 46.46491699 -0.01820801 47.31616211 -0.02758789 C49.16933759 -0.03473945 51.02249308 0.0122148 52.875 0.0625 C53.875 1.0625 53.875 1.0625 53.99525452 3.87818909 C53.99303391 5.13727585 53.99081329 6.39636261 53.98852539 7.69360352 C53.98867142 8.38625305 53.98881744 9.07890259 53.9889679 9.7925415 C53.98826874 12.09219446 53.98047628 14.39176737 53.97265625 16.69140625 C53.97079208 18.28181412 53.96936817 19.87222257 53.96836853 21.46263123 C53.96454329 25.6564593 53.95471295 29.85025295 53.94366455 34.04406738 C53.93345057 38.32038914 53.92887094 42.59671644 53.92382812 46.87304688 C53.91309068 55.26954884 53.89549384 63.66601618 53.875 72.0625 C48.265 72.0625 42.655 72.0625 36.875 72.0625 C36.875 61.8325 36.875 51.6025 36.875 41.0625 C27.635 41.3925 18.395 41.7225 8.875 42.0625 C8.545 51.9625 8.215 61.8625 7.875 72.0625 C1.935 72.0625 -4.005 72.0625 -10.125 72.0625 C-9.795 69.4225 -9.465 66.7825 -9.125 64.0625 C-9.1113077 62.42403912 -9.14515342 60.78384344 -9.24609375 59.1484375 C-9.29451416 58.2402124 -9.34293457 57.3319873 -9.39282227 56.39624023 C-9.44881592 55.41985596 -9.50480957 54.44347168 -9.5625 53.4375 C-10.13912007 41.78688689 -10.21379418 30.16235328 -10.1875 18.5 C-10.1856369 17.63469666 -10.1837738 16.76939331 -10.18185425 15.87786865 C-10.16971415 10.93937092 -10.15034937 6.0009468 -10.125 1.0625 C-6.93953711 -0.53023144 -3.49300652 -0.03891833 0 0 Z M-7.125 2.0625 C-7.125 24.8325 -7.125 47.6025 -7.125 71.0625 C-2.835 71.0625 1.455 71.0625 5.875 71.0625 C5.875 60.8325 5.875 50.6025 5.875 40.0625 C16.765 40.0625 27.655 40.0625 38.875 40.0625 C38.875 50.2925 38.875 60.5225 38.875 71.0625 C43.165 71.0625 47.455 71.0625 51.875 71.0625 C51.875 48.2925 51.875 25.5225 51.875 2.0625 C47.585 2.0625 43.295 2.0625 38.875 2.0625 C38.545 10.3125 38.215 18.5625 37.875 27.0625 C22.035 27.5575 22.035 27.5575 5.875 28.0625 C5.875 19.4825 5.875 10.9025 5.875 2.0625 C1.585 2.0625 -2.705 2.0625 -7.125 2.0625 Z " fill="#2D8930" transform="translate(610.125,439.9375)"/>
<path d="M0 0 C3.63 0 7.26 0 11 0 C10.99476318 0.81678223 10.98952637 1.63356445 10.98413086 2.47509766 C10.96328651 6.19172388 10.95031608 9.90833778 10.9375 13.625 C10.92912109 14.91019531 10.92074219 16.19539062 10.91210938 17.51953125 C10.90888672 18.76347656 10.90566406 20.00742187 10.90234375 21.2890625 C10.89710693 22.43068848 10.89187012 23.57231445 10.88647461 24.74853516 C10.99729322 27.92247536 11.47394122 30.87322494 12 34 C12.01427865 35.65407677 11.97541201 37.30961667 11.87890625 38.9609375 C11.83056641 39.84394531 11.78222656 40.72695313 11.73242188 41.63671875 C11.67634766 42.54035156 11.62027344 43.44398438 11.5625 44.375 C11.51029297 45.30183594 11.45808594 46.22867188 11.40429688 47.18359375 C11.275445 49.4560722 11.13853103 51.72809105 11 54 C7.37 54 3.74 54 0 54 C0 36.18 0 18.36 0 0 Z " fill="#D6D6D4" transform="translate(461,531)"/>
<path d="M0 0 C15.84 0 31.68 0 48 0 C47.34 0.33 46.68 0.66 46 1 C46.33 26.08 46.66 51.16 47 77 C50.63 72.71 54.26 68.42 58 64 C58.99 64.495 58.99 64.495 60 65 C59.30132812 65.81984375 58.60265625 66.6396875 57.8828125 67.484375 C56.96333205 68.57273961 56.04407282 69.66129115 55.125 70.75 C54.66480469 71.28882813 54.20460938 71.82765625 53.73046875 72.3828125 C51.42602052 75.12143213 49.39819537 77.6893305 48 81 C46.68 81 45.36 81 44 81 C44 54.93 44 28.86 44 2 C30.47 2 16.94 2 3 2 C3 55.13 3 108.26 3 163 C2.67 163 2.34 163 2 163 C0.92116186 154.67564488 0.87029396 146.417083 0.90234375 138.03515625 C0.90426649 136.54926097 0.9057286 135.06336503 0.9067688 133.57746887 C0.90991118 130.39804864 0.91615086 127.21865548 0.92483521 124.03924561 C0.93842408 119.01395881 0.94426489 113.98868079 0.94897461 108.96337891 C0.96003805 98.3089073 0.97960675 87.6544572 1 77 C1.02203044 65.46848608 1.04257843 53.93698058 1.05341816 42.40544987 C1.058407 37.40664599 1.06827455 32.40788243 1.08184814 27.40909481 C1.08928538 24.30936375 1.09261868 21.2096383 1.0948143 18.10989952 C1.09669241 16.66910151 1.10030537 15.2283046 1.10574722 13.78751564 C1.11292192 11.82694241 1.1134156 9.86634807 1.11352539 7.90576172 C1.115746 6.80706757 1.11796661 5.70837341 1.12025452 4.5763855 C1.17486543 2.01221031 1.17486543 2.01221031 0 0 Z " fill="#247B26" transform="translate(272,399)"/>
<path d="M0 0 C6.09569028 -1.5710542 12.08744892 -2.71804738 18 0 C24.02636775 6.11481344 27.65769749 14.28114733 31.43457031 21.89648438 C33.42866362 25.84983966 35.69074695 29.60108668 38 33.375 C39.875 36.5234375 39.875 36.5234375 41 39 C40.67 39.99 40.34 40.98 40 42 C39.32682292 40.83723958 38.65364583 39.67447917 37.98046875 38.51171875 C37.54001221 37.75109131 37.09955566 36.99046387 36.64575195 36.20678711 C35.66585897 34.51391658 34.68653825 32.82071468 33.70776367 31.12719727 C31.09185381 26.60295629 28.46638804 22.08479911 25.8203125 17.578125 C25.31604736 16.71614502 24.81178223 15.85416504 24.29223633 14.96606445 C23.3163681 13.29850676 22.33711048 11.63292731 21.35424805 9.96948242 C20.69356323 8.83796753 20.69356323 8.83796753 20.01953125 7.68359375 C19.62870361 7.01900146 19.23787598 6.35440918 18.83520508 5.66967773 C18 4 18 4 18 2 C12.72 2 7.44 2 2 2 C2 24.77 2 47.54 2 71 C6.29 71 10.58 71 15 71 C15 71.33 15 71.66 15 72 C10.05 72 5.1 72 0 72 C-0.67258044 67.96451739 -1.10663627 64.94554198 -1 61 C-1 60.01 -1 59.02 -1 58 C-0.99154396 56.09986327 -0.98305697 54.19972666 -0.97434998 52.29959106 C-0.96103211 49.08889538 -0.95285682 45.8781938 -0.94506836 42.66748047 C-0.94003343 40.9760679 -0.93320511 39.28465969 -0.92456055 37.59326172 C-0.91239913 35.14810118 -0.90675189 32.70299781 -0.90234375 30.2578125 C-0.89718246 29.50557404 -0.89202118 28.75333557 -0.88670349 27.978302 C-0.88638246 24.95765073 -0.97216005 22.13849448 -1.56860352 19.17138672 C-2 17 -2 17 -1 14 C-0.93339159 11.77694428 -1.00138999 9.57443902 -1.0625 7.3515625 C-0.9947737 4.80336038 -0.56137338 2.48232293 0 0 Z " fill="#2D8B2F" transform="translate(753,440)"/>
<path d="M0 0 C1.33387099 4.00161296 -0.0333984 6.3798173 -1.53125 10.11328125 C-2.09646814 11.56847787 -2.66156849 13.02372025 -3.2265625 14.47900391 C-3.52143555 15.22877502 -3.81630859 15.97854614 -4.12011719 16.7510376 C-5.4982541 20.27352726 -6.82475351 23.81515209 -8.15625 27.35546875 C-8.70249612 28.79978749 -9.24913425 30.24395804 -9.79614258 31.68798828 C-10.96555417 34.77608966 -12.13468854 37.86429557 -13.3034668 40.95263672 C-16.19923373 48.60390567 -19.09628736 56.25468625 -21.99478149 63.90492249 C-23.28947608 67.32237134 -24.58373183 70.7399863 -25.87792969 74.15762329 C-26.49863541 75.79636016 -27.1195647 77.43501237 -27.74072266 79.07357788 C-28.6050214 81.35353935 -29.46860236 83.6337715 -30.33203125 85.9140625 C-30.58866043 86.59045273 -30.84528961 87.26684296 -31.10969543 87.96372986 C-32.11878816 90.63050531 -33.09819864 93.29459591 -34 96 C-20.47 95.67 -6.94 95.34 7 95 C7.66 93.02 8.32 91.04 9 89 C10.12769881 85.88075617 11.31284323 82.78453869 12.5 79.6875 C12.80808594 78.86443359 13.11617187 78.04136719 13.43359375 77.19335938 C13.73394531 76.41154297 14.03429687 75.62972656 14.34375 74.82421875 C14.74883789 73.75820435 14.74883789 73.75820435 15.16210938 72.6706543 C16 71 16 71 18 70 C16.70138206 76.39713272 14.99631534 82.39704828 12.6875 88.5 C12.40455078 89.30953125 12.12160156 90.1190625 11.83007812 90.953125 C11.53939453 91.72140625 11.24871094 92.4896875 10.94921875 93.28125 C10.69487061 93.97283203 10.44052246 94.66441406 10.1784668 95.37695312 C9 97 9 97 6.96923828 97.72631836 C2.81969033 98.1087919 -1.29203802 98.12233623 -5.45703125 98.09765625 C-6.35999435 98.0962413 -7.26295746 98.09482635 -8.19328308 98.09336853 C-11.06638963 98.08778823 -13.93941716 98.07523934 -16.8125 98.0625 C-18.76497283 98.05748245 -20.71744689 98.05291999 -22.66992188 98.04882812 C-27.44664485 98.03782525 -32.22330904 98.02057418 -37 98 C-36.39151688 94.56576392 -35.51877529 91.47364812 -34.2421875 88.23046875 C-33.87158203 87.27978516 -33.50097656 86.32910156 -33.11914062 85.34960938 C-32.70857422 84.30611328 -32.29800781 83.26261719 -31.875 82.1875 C-30.9644851 79.848302 -30.05575081 77.50841042 -29.1484375 75.16796875 C-28.9027301 74.53430389 -28.65702271 73.90063904 -28.40386963 73.24777222 C-25.36416049 65.38776062 -22.42078078 57.49161979 -19.4708252 49.59759521 C-14.72698606 36.90470889 -9.97195302 24.21643232 -5.125 11.5625 C-4.71443359 10.48548828 -4.30386719 9.40847656 -3.88085938 8.29882812 C-3.51025391 7.33525391 -3.13964844 6.37167969 -2.7578125 5.37890625 C-2.4395752 4.5494751 -2.12133789 3.72004395 -1.79345703 2.86547852 C-1 1 -1 1 0 0 Z " fill="#28802A" transform="translate(127,502)"/>
<path d="M0 0 C5.39360792 4.75351048 8.97235814 10.70223338 12.875 16.6875 C14.24625536 18.77548902 15.618641 20.86273621 16.9921875 22.94921875 C17.6634668 23.96935059 18.33474609 24.98948242 19.02636719 26.04052734 C21.34970354 29.52438227 23.74175033 32.95401934 26.16845703 36.36645508 C28 39 28 39 29.1479187 41.27095032 C31.77372069 46.15201475 31.77372069 46.15201475 36.42526245 48.78575134 C39.42410406 49.04271373 42.29782108 49.0130985 45.3046875 48.87890625 C46.38380402 48.86617172 47.46292053 48.85343719 48.57473755 48.84031677 C52.01047608 48.79006248 55.44086772 48.67717944 58.875 48.5625 C61.20825687 48.51734332 63.54159681 48.47628083 65.875 48.43945312 C71.58514756 48.34039865 77.29219191 48.1899476 83 48 C82.44316277 47.23265785 82.44316277 47.23265785 81.87507629 46.44981384 C80.17202977 44.10152345 78.4707695 41.75194445 76.76953125 39.40234375 C76.18562622 38.59776733 75.60172119 37.79319092 75.00012207 36.9642334 C71.15129295 31.64518675 67.45643968 26.25928437 63.85546875 20.76953125 C60.71208012 16.07761011 57.35936428 11.53871557 54 7 C54.99 7 55.98 7 57 7 C58.29589844 8.30322266 58.29589844 8.30322266 59.609375 10.1640625 C60.10985352 10.8638623 60.61033203 11.56366211 61.12597656 12.28466797 C61.6619043 13.05697754 62.19783203 13.82928711 62.75 14.625 C63.30913086 15.41664551 63.86826172 16.20829102 64.44433594 17.02392578 C66.30838502 19.67432249 68.15474213 22.33649142 70 25 C70.67933594 25.97259766 71.35867188 26.94519531 72.05859375 27.94726562 C74.13117882 30.91719899 76.19284782 33.89435999 78.25 36.875 C79.23371582 38.29159912 79.23371582 38.29159912 80.23730469 39.73681641 C80.84477539 40.62546387 81.45224609 41.51411133 82.078125 42.4296875 C82.88878418 43.60893799 82.88878418 43.60893799 83.71582031 44.81201172 C84.95925406 46.93057697 85.46567334 48.62808535 86 51 C78.95248176 51.02534293 71.90497527 51.04286391 64.85742188 51.05493164 C62.45963095 51.0599622 60.06184309 51.06678733 57.6640625 51.07543945 C54.21874229 51.08756082 50.77346263 51.09324108 47.328125 51.09765625 C45.71855927 51.10539818 45.71855927 51.10539818 44.07647705 51.11329651 C42.57537384 51.11340981 42.57537384 51.11340981 41.04394531 51.11352539 C39.72490204 51.11685631 39.72490204 51.11685631 38.37921143 51.12025452 C32.75914459 50.83619468 32.75914459 50.83619468 30.71069336 48.57983398 C30.1558728 47.67213257 30.1558728 47.67213257 29.58984375 46.74609375 C29.1630835 46.06466309 28.73632324 45.38323242 28.29663086 44.68115234 C27.84811768 43.94074707 27.39960449 43.2003418 26.9375 42.4375 C25.96040474 40.87500483 24.98118444 39.31383682 24 37.75390625 C23.25363281 36.56112061 23.25363281 36.56112061 22.4921875 35.34423828 C20.23066087 31.79136218 17.84220139 28.3319191 15.4375 24.875 C14.53342205 23.56800713 13.62977559 22.26071568 12.7265625 20.953125 C12.28086914 20.30794922 11.83517578 19.66277344 11.37597656 18.99804688 C9.00322168 15.55258449 6.65072473 12.09397462 4.3125 8.625 C3.87800537 7.98804199 3.44351074 7.35108398 2.99584961 6.69482422 C0 2.23073289 0 2.23073289 0 0 Z " fill="#2B852D" transform="translate(353,549)"/>
<path d="M0 0 C2.75042368 1.37521184 2.8385284 2.73045343 3.88842773 5.59448242 C4.2535849 6.57978439 4.61874207 7.56508636 4.9949646 8.58024597 C5.38721222 9.66106949 5.77945984 10.74189301 6.18359375 11.85546875 C6.59501617 12.9717012 7.0064386 14.08793365 7.43032837 15.23799133 C8.77283666 18.88537498 10.10521911 22.53636957 11.4375 26.1875 C12.3560553 28.68903504 13.27524542 31.19033705 14.19506836 33.69140625 C16.41940041 39.74403974 18.63611591 45.79942539 20.84997559 51.855896 C22.35647386 55.97458008 23.86878351 60.09111079 25.3828125 64.20703125 C27.51973964 70.01899034 29.6486694 75.83384426 31.77441406 81.64990234 C33.53116269 86.45191524 35.29428026 91.25158293 37.05737305 96.05126953 C38.42122355 99.76576746 39.77862454 103.48261243 41.13671875 107.19921875 C42.91412339 112.06240575 44.71309015 116.91704455 46.52870178 121.76609802 C47.66660484 124.80977764 48.79594177 127.85659811 49.92410278 130.90390015 C50.47103723 132.37478054 51.02183081 133.84423219 51.57662964 135.31216431 C52.34749891 137.3530001 53.10482156 139.39839871 53.859375 141.4453125 C54.51631348 143.20125732 54.51631348 143.20125732 55.18652344 144.99267578 C55.98001983 147.92613572 56.10593715 149.22493274 55 152 C44.28572107 124.04565747 44.28572107 124.04565747 40.4375 112.8125 C37.8061348 105.13521801 34.93878389 97.56468794 32 90 C29.11039609 82.55825095 26.27826381 75.1137669 23.6875 67.5625 C20.44940453 58.12835669 16.98129998 48.78387921 13.5 39.4375 C13.07424683 38.293311 13.07424683 38.293311 12.63989258 37.12600708 C9.97205063 29.95642052 7.29831762 22.78914338 4.60546875 15.62890625 C4.27289063 14.73953369 3.9403125 13.85016113 3.59765625 12.93383789 C3.01196988 11.36766102 2.42243197 9.80291626 1.828125 8.23999023 C0.74575337 5.33812666 0 3.1263739 0 0 Z " fill="#257E27" transform="translate(216,406)"/>
<path d="M0 0 C1.12492355 0.00848969 2.24984711 0.01697937 3.40885925 0.02572632 C6.99620976 0.05927057 10.58129949 0.13455895 14.16796875 0.2109375 C16.60218105 0.24103545 19.03642863 0.26841154 21.47070312 0.29296875 C27.43306095 0.35906539 33.39410334 0.45942649 39.35546875 0.5859375 C39.35546875 1.2459375 39.35546875 1.9059375 39.35546875 2.5859375 C38.45583405 2.55809677 38.45583405 2.55809677 37.5380249 2.5296936 C31.24224735 2.34894468 24.95062472 2.26863394 18.65234375 2.24414062 C16.3088721 2.22220284 13.96548667 2.17545292 11.62304688 2.10253906 C-2.42528509 1.14750158 -2.42528509 1.14750158 -14.76025391 6.57397461 C-17.41652477 9.40738438 -19.55491015 12.45714802 -21.54159546 15.78712463 C-23.31041201 18.6719435 -25.41996672 21.24673217 -27.51953125 23.8984375 C-28.31617188 24.94902344 -29.1128125 25.99960937 -29.93359375 27.08203125 C-33.15546623 31.28856863 -36.52289245 35.37414284 -39.89453125 39.4609375 C-40.47315918 40.16259033 -41.05178711 40.86424316 -41.64794922 41.5871582 C-45.26771471 45.96030493 -48.93898508 50.28525816 -52.64453125 54.5859375 C-52.64453125 50.47363762 -50.50762733 48.51141147 -48.01953125 45.4609375 C-47.53097656 44.85056641 -47.04242188 44.24019531 -46.5390625 43.61132812 C-42.034485 38.006008 -37.44552633 32.46835068 -32.85913086 26.92993164 C-28.58395395 21.75886883 -24.39936684 16.52496271 -20.28320312 11.2265625 C-19.07651993 9.67484036 -17.8606337 8.13028874 -16.64453125 6.5859375 C-16.01015137 5.5451001 -15.37577148 4.5042627 -14.72216797 3.43188477 C-10.88740505 -1.1135454 -5.49757183 -0.15622504 0 0 Z " fill="#29822B" transform="translate(392.64453125,398.4140625)"/>
<path d="M0 0 C5.28 0 10.56 0 16 0 C16 8.91 16 17.82 16 27 C25.9 27 35.8 27 46 27 C46 27.33 46 27.66 46 28 C35.44 28 24.88 28 14 28 C14 19.42 14 10.84 14 2 C9.71 2 5.42 2 1 2 C1 19.82 1 37.64 1 56 C0.67 56 0.34 56 0 56 C0 37.52 0 19.04 0 0 Z " fill="#1F751F" transform="translate(602,440)"/>
<path d="M0 0 C0.66 0 1.32 0 2 0 C1.57332031 0.84820312 1.14664062 1.69640625 0.70703125 2.5703125 C-0.40907561 6.10521258 -0.40907561 6.10521258 1.82421875 9.3046875 C2.75944085 10.50994208 3.71547682 11.69922369 4.6875 12.875 C5.73149796 14.21433187 6.77309794 15.55553581 7.8125 16.8984375 C8.34875 17.58131836 8.885 18.26419922 9.4375 18.96777344 C11.81500015 22.06000957 14.00261933 25.27014036 16.1875 28.5 C17.09177454 29.8259803 17.99675413 31.15147999 18.90234375 32.4765625 C19.38687012 33.18586914 19.87139648 33.89517578 20.37060547 34.62597656 C23.64121484 39.39124559 26.94769509 44.13166856 30.25 48.875 C30.91153076 49.82568359 31.57306152 50.77636719 32.25463867 51.75585938 C32.89763916 52.67947266 33.54063965 53.60308594 34.203125 54.5546875 C34.82767578 55.45670898 35.45222656 56.35873047 36.09570312 57.28808594 C37.40017147 59.14578266 38.72834228 60.98699629 40.07617188 62.81347656 C40.72650391 63.70260742 41.37683594 64.59173828 42.046875 65.5078125 C42.63823242 66.30074707 43.22958984 67.09368164 43.83886719 67.91064453 C44.22204102 68.60013184 44.60521484 69.28961914 45 70 C44.505 71.485 44.505 71.485 44 73 C39.47377769 66.91867897 35.12150529 60.75742402 30.9375 54.4375 C27.04586341 48.55981203 23.07532979 42.75245358 19 37 C18.08433974 35.70072916 17.16900351 34.40122993 16.25390625 33.1015625 C9.87183889 24.04191373 3.45335251 15.00899432 -3 6 C-2 4 -1 2 0 0 Z " fill="#267F28" transform="translate(362,481)"/>
<path d="M0 0 C17.49 0 34.98 0 53 0 C53 0.99 53 1.98 53 3 C35.84 3 18.68 3 1 3 C0.67 2.01 0.34 1.02 0 0 Z " fill="#2B8B30" transform="translate(163,518)"/>
<path d="M0 0 C4.75032037 0.46571768 8.12160643 1.14824002 12 4 C13.56935594 7.13871188 13.35201103 9.53855822 13 13 C10.8272578 15.63016161 9.05326212 17.47336894 6 19 C-1.64457592 19.65219459 -7.8573726 19.91410192 -14 15 C-15.85758514 12.33476915 -16 11.29052817 -16 8 C-20.29 8 -24.58 8 -29 8 C-28.67 10.64 -28.34 13.28 -28 16 C-28.66 15.67 -29.32 15.34 -30 15 C-30.4140625 12.93359375 -30.4140625 12.93359375 -30.625 10.4375 C-30.69976563 9.61121094 -30.77453125 8.78492188 -30.8515625 7.93359375 C-30.90054688 7.29550781 -30.94953125 6.65742188 -31 6 C-25.90209628 5.53830306 -21.08178003 5.27325664 -16 6 C-13.78460122 7.89151007 -12.95218722 9.38017338 -11.859375 12.0546875 C-11.0520881 14.35306562 -11.0520881 14.35306562 -8 16 C-1.57529818 17.41503202 3.77839681 16.95865286 10 15 C10.28776255 11.94971693 10.43283547 9.04066915 10 6 C7.89299553 3.90237966 7.89299553 3.90237966 5 3 C4.071875 2.608125 3.14375 2.21625 2.1875 1.8125 C1.465625 1.544375 0.74375 1.27625 0 1 C0 0.67 0 0.34 0 0 Z " fill="#2C8A2E" transform="translate(564,482)"/>
<path d="M0 0 C0.33 0 0.66 0 1 0 C1.02505615 0.70608398 1.0501123 1.41216797 1.07592773 2.13964844 C1.19207369 5.34327509 1.31471603 8.54662118 1.4375 11.75 C1.47681641 12.86117188 1.51613281 13.97234375 1.55664062 15.1171875 C1.61948242 16.72207031 1.61948242 16.72207031 1.68359375 18.359375 C1.72025146 19.34389648 1.75690918 20.32841797 1.79467773 21.34277344 C1.91946185 23.92100938 1.91946185 23.92100938 2.51367188 26.0546875 C3.08773903 28.35095613 3.11282029 30.40003541 3.09765625 32.765625 C3.09443359 33.65507812 3.09121094 34.54453125 3.08789062 35.4609375 C3.07951172 36.38132812 3.07113281 37.30171875 3.0625 38.25 C3.05798828 39.18585938 3.05347656 40.12171875 3.04882812 41.0859375 C3.03706938 43.39065247 3.01913468 45.69533446 3 48 C-3.93 47.505 -3.93 47.505 -11 47 C-11 34.79 -11 22.58 -11 10 C-10.67 10 -10.34 10 -10 10 C-10 21.55 -10 33.1 -10 45 C-6.7 45.33 -3.4 45.66 0 46 C0 30.82 0 15.64 0 0 Z " fill="#3AA33F" transform="translate(766,464)"/>
<path d="M0 0 C3.00506441 2.51968071 3.96489611 5.08185615 5.234375 8.75 C5.84369873 10.48648804 5.84369873 10.48648804 6.46533203 12.25805664 C7.10124268 14.1103186 7.10124268 14.1103186 7.75 16 C8.41349596 17.90481517 9.07978852 19.80863699 9.74624634 21.7124176 C10.19157525 22.98520601 10.63589058 24.2583495 11.07919312 25.53184509 C13.28623818 31.86120196 15.62551442 38.13925576 18.01855469 44.40039062 C19.14854906 47.40912109 20 49.75694539 20 53 C14.39 53 8.78 53 3 53 C3.33 52.34 3.66 51.68 4 51 C8.29 51 12.58 51 17 51 C12.42889538 37.0009921 7.8321629 23.05110413 2.38867188 9.36254883 C2.07349609 8.56228271 1.75832031 7.7620166 1.43359375 6.9375 C1.15572021 6.24527344 0.87784668 5.55304688 0.59155273 4.83984375 C0 3 0 3 0 0 Z " fill="#278128" transform="translate(510,459)"/>
<path d="M0 0 C5.48927264 0.13723182 8.38104126 2.43252432 12.23046875 6.0390625 C16.78381471 11.08493374 17 15.05811102 17 22 C12.05 22 7.1 22 2 22 C1.4121875 20.3603125 1.4121875 20.3603125 0.8125 18.6875 C-0.7025523 15.08925078 -2.39846838 13.65475777 -6 12 C-5.01 11.67 -4.02 11.34 -3 11 C1.875 15.5 1.875 15.5 3 20 C6.96 20 10.92 20 15 20 C13.86122265 14.49590948 12.76488831 10.3441019 9 6 C6.10393827 4.10430502 3.11515572 2.50432734 0 1 C0 0.67 0 0.34 0 0 Z " fill="#2A852C" transform="translate(573,441)"/>
<path d="M0 0 C2.77700616 2.65626676 5.07601345 5.33400017 7.25 8.5 C8.14912109 9.80904297 8.14912109 9.80904297 9.06640625 11.14453125 C9.70449219 12.08683594 10.34257812 13.02914062 11 14 C11.68964844 15.01449219 12.37929688 16.02898438 13.08984375 17.07421875 C16.59948746 22.2831313 19.99182512 27.48501271 23 33 C19.28012115 31.53775821 17.94820529 29.77931433 15.9375 26.375 C12.80353711 21.23612198 9.48808794 16.26185549 6.0625 11.3125 C5.56548584 10.59304199 5.06847168 9.87358398 4.55639648 9.13232422 C3.37255656 7.4204242 2.186518 5.71004493 1 4 C-1.64 5.98 -4.28 7.96 -7 10 C-4.98127747 5.96255494 -2.91899872 3.37989325 0 0 Z " fill="#267E26" transform="translate(330,515)"/>
<path d="M0 0 C0.33 0 0.66 0 1 0 C1.33 10.23 1.66 20.46 2 31 C6.29 31 10.58 31 15 31 C15 31.33 15 31.66 15 32 C10.05 32 5.1 32 0 32 C-0.67258044 27.96451739 -1.10663627 24.94554198 -1 21 C-1 19.26688746 -1.00745462 17.53367238 -1.03515625 15.80078125 C-1.09422593 10.42544013 -0.78781149 5.31772753 0 0 Z " fill="#247A27" transform="translate(753,480)"/>
<path d="M0 0 C3.47891109 3.31357148 6.28017518 6.62142757 8.91796875 10.6328125 C9.61470703 11.68597656 10.31144531 12.73914063 11.02929688 13.82421875 C11.74150391 14.91347656 12.45371094 16.00273438 13.1875 17.125 C13.91130859 18.22199219 14.63511719 19.31898438 15.38085938 20.44921875 C16.71772982 22.47628743 18.05222169 24.50492828 19.38354492 26.53564453 C20.58153616 28.36203383 21.78840463 30.18260694 23 32 C22.01 32 21.02 32 20 32 C18.33365818 29.84445692 16.88169358 27.73641463 15.4375 25.4375 C14.55387086 24.06739513 13.66974085 22.69761319 12.78515625 21.328125 C12.33027832 20.61720703 11.87540039 19.90628906 11.40673828 19.17382812 C10.00514081 17.00794407 8.57080537 14.86830322 7.12109375 12.734375 C6.660979 12.05576416 6.20086426 11.37715332 5.72680664 10.67797852 C4.83644202 9.366954 3.94375666 8.05750213 3.04858398 6.74975586 C0 2.22321934 0 2.22321934 0 0 Z " fill="#267C27" transform="translate(353,549)"/>
<path d="M0 0 C9.57 0 19.14 0 29 0 C29.33 1.65 29.66 3.3 30 5 C29.34 4.67 28.68 4.34 28 4 C28 3.34 28 2.68 28 2 C18.43 2 8.86 2 -1 2 C-0.67 1.34 -0.34 0.68 0 0 Z " fill="#308D31" transform="translate(480,495)"/>
<path d="M0 0 C0.66 0 1.32 0 2 0 C0.67143806 2.92643237 -0.79564177 5.0700763 -3.01171875 7.390625 C-3.60194824 8.01445068 -4.19217773 8.63827637 -4.80029297 9.28100586 C-5.42307129 9.93077393 -6.04584961 10.58054199 -6.6875 11.25 C-7.95535016 12.5889703 -9.22228651 13.92880651 -10.48828125 15.26953125 C-11.39827881 16.23173584 -11.39827881 16.23173584 -12.32666016 17.21337891 C-15.30826098 20.39682723 -18.17580501 23.67679311 -21 27 C-21 23.47967572 -20.29648649 22.5614657 -18 20 C-17.34 20 -16.68 20 -16 20 C-15.773125 19.45472656 -15.54625 18.90945313 -15.3125 18.34765625 C-13.59986449 15.28428143 -11.39646955 12.99768186 -9 10.4375 C-6.42555742 7.67970322 -4.09363537 5.14045306 -2 2 C-1.34 2 -0.68 2 0 2 C0 1.34 0 0.68 0 0 Z " fill="#237724" transform="translate(433,400)"/>
<path d="M0 0 C1.9009762 2.8514643 2.96265899 5.29710476 4.125 8.5 C4.47820313 9.4590625 4.83140625 10.418125 5.1953125 11.40625 C6 14 6 14 6 17 C1.71 17 -2.58 17 -7 17 C-7 16.67 -7 16.34 -7 16 C-3.7 15.67 -0.4 15.34 3 15 C2.54947266 13.87851562 2.54947266 13.87851562 2.08984375 12.734375 C1.51943359 11.25710938 1.51943359 11.25710938 0.9375 9.75 C0.55464844 8.77546875 0.17179688 7.8009375 -0.22265625 6.796875 C-1.01113787 3.95992605 -1.02437812 2.70590448 0 0 Z " fill="#C4C4C1" transform="translate(931,569)"/>
<path d="M0 0 C2.52011437 5.04022874 3 9.42183198 3 15 C-3.27 15 -9.54 15 -16 15 C-16 14.67 -16 14.34 -16 14 C-10.72 14 -5.44 14 0 14 C0 9.38 0 4.76 0 0 Z " fill="#216F23" transform="translate(813,497)"/>
<path d="M0 0 C2.44839588 3.67259383 4 6.54648201 4 11 C-1.61 11 -7.22 11 -13 11 C-12.67 10.34 -12.34 9.68 -12 9 C-7.71 9 -3.42 9 1 9 C0.649375 7.700625 0.29875 6.40125 -0.0625 5.0625 C-0.66015625 2.84765625 -0.66015625 2.84765625 -1 1 C-0.67 0.67 -0.34 0.34 0 0 Z " fill="#1A6D1C" transform="translate(526,501)"/>
<path d="M0 0 C0.66 0.33 1.32 0.66 2 1 C0.95199219 2.22976563 0.95199219 2.22976563 -0.1171875 3.484375 C-1.03666795 4.57273961 -1.95592718 5.66129115 -2.875 6.75 C-3.33519531 7.28882813 -3.79539062 7.82765625 -4.26953125 8.3828125 C-6.57397948 11.12143213 -8.60180463 13.6893305 -10 17 C-11.32 16.67 -12.64 16.34 -14 16 C-13.34 15.38125 -12.68 14.7625 -12 14.125 C-8.5725302 10.71722831 -5.65689749 6.90237351 -2.671875 3.109375 C-1 1 -1 1 0 0 Z " fill="#237E24" transform="translate(330,463)"/>
<path d="M0 0 C4.32437828 1.52098822 6.34330382 4.79931239 8.8125 8.4375 C9.44188477 9.31631836 9.44188477 9.31631836 10.08398438 10.21289062 C11.26953125 11.93359375 11.26953125 11.93359375 13 15 C12.67 15.99 12.34 16.98 12 18 C10.56052003 15.93885782 9.12337429 13.87615188 7.6875 11.8125 C7.28337891 11.23435547 6.87925781 10.65621094 6.46289062 10.06054688 C4.17922307 6.77429357 2.01442146 3.46167572 0 0 Z " fill="#227823" transform="translate(407,555)"/>
<path d="M0 0 C-0.59167969 0.268125 -1.18335938 0.53625 -1.79296875 0.8125 C-7.88860991 3.8354607 -10.99124334 6.90688979 -14 13 C-14.6640625 11.22265625 -14.6640625 11.22265625 -15 9 C-11.82714851 3.4534739 -6.59409512 -2.0032694 0 0 Z " fill="#288129" transform="translate(552,442)"/>
<path d="M0 0 C0.79921875 0.01804687 1.5984375 0.03609375 2.421875 0.0546875 C3.02515625 0.07789063 3.6284375 0.10109375 4.25 0.125 C4.25 0.785 4.25 1.445 4.25 2.125 C1.12819599 3.09161363 -1.27083795 3.11488909 -4.5 2.6875 C-5.69882812 2.53474609 -5.69882812 2.53474609 -6.921875 2.37890625 C-7.52515625 2.29511719 -8.1284375 2.21132813 -8.75 2.125 C-5.68753253 0.34090198 -3.52920727 -0.10380021 0 0 Z " fill="#DDDDDA" transform="translate(500.75,530.875)"/>
<path d="M0 0 C3.96 1.98 3.96 1.98 8 4 C8 4.66 8 5.32 8 6 C8.66 6.33 9.32 6.66 10 7 C5.61537866 6.49890042 3.1999003 5.01704885 0 2 C0 1.34 0 0.68 0 0 Z " fill="#C7C7C4" transform="translate(565,578)"/>
<path d="M0 0 C0.350625 0.474375 0.70125 0.94875 1.0625 1.4375 C3.84163543 3.67873825 6.5144717 3.67117658 10 4 C7 6 7 6 3.9375 5.875 C1 5 1 5 -0.375 2.9375 C-0.58125 2.298125 -0.7875 1.65875 -1 1 C-0.67 0.67 -0.34 0.34 0 0 Z " fill="#288128" transform="translate(384,594)"/>
<path d="M0 0 C1.80125336 2.70188004 3.00243753 4.93057703 4 8 C3.67 8.99 3.34 9.98 3 11 C3 10.34 3 9.68 3 9 C2.34 9 1.68 9 1 9 C-1.125 3.375 -1.125 3.375 0 0 Z " fill="#CDCECA" transform="translate(751,540)"/>
<path d="M0 0 C2.95183101 2.95183101 3.08663988 5.95511947 4 10 C3.34 10 2.68 10 2 10 C1.01 7.03 0.02 4.06 -1 1 C-0.67 0.67 -0.34 0.34 0 0 Z " fill="#29862D" transform="translate(255,510)"/>
<path d="M0 0 C0.66 0 1.32 0 2 0 C0.50902342 3.7952131 -1.75700849 5.61042731 -5 8 C-4.1875 5.5625 -4.1875 5.5625 -3 3 C-2.01 2.67 -1.02 2.34 0 2 C0 1.34 0 0.68 0 0 Z " fill="#287F29" transform="translate(433,400)"/>
<path d="M0 0 C3.3 0 6.6 0 10 0 C10 0.33 10 0.66 10 1 C6.7 1.33 3.4 1.66 0 2 C0 1.34 0 0.68 0 0 Z " fill="#C8C8C5" transform="translate(903,574)"/>
<path d="M0 0 C1.98 0 3.96 0 6 0 C6 0.33 6 0.66 6 1 C4.02 1 2.04 1 0 1 C0 0.67 0 0.34 0 0 Z " fill="#CACBC7" transform="translate(737,574)"/>
<path d="M0 0 C1.98 0 3.96 0 6 0 C6 0.33 6 0.66 6 1 C4.02 1 2.04 1 0 1 C0 0.67 0 0.34 0 0 Z " fill="#C5CAC5" transform="translate(679,549)"/>
<path d="M0 0 C1.32 0.33 2.64 0.66 4 1 C2.68 1.33 1.36 1.66 0 2 C0 1.34 0 0.68 0 0 Z " fill="#CBCBC8" transform="translate(746,574)"/>
<path d="M0 0 C0.99 0 1.98 0 3 0 C2.67 0.66 2.34 1.32 2 2 C1.34 2 0.68 2 0 2 C0 1.34 0 0.68 0 0 Z " fill="#C8CAC6" transform="translate(538,574)"/>
<path d="M0 0 C1.65 0 3.3 0 5 0 C5 0.33 5 0.66 5 1 C3.35 1 1.7 1 0 1 C0 0.67 0 0.34 0 0 Z " fill="#C8C9C6" transform="translate(528,574)"/>
<path d="M0 0 C1.32 0 2.64 0 4 0 C3.67 0.66 3.34 1.32 3 2 C2.01 1.34 1.02 0.68 0 0 Z " fill="#C8CCC4" transform="translate(626,542)"/>
<path d="M0 0 C1.32 0.33 2.64 0.66 4 1 C3.01 1.495 3.01 1.495 2 2 C1.34 1.34 0.68 0.68 0 0 Z " fill="#44A849" transform="translate(640,464)"/>
<path d="M0 0 C0.99 0 1.98 0 3 0 C2.67 0.66 2.34 1.32 2 2 C1.34 1.34 0.68 0.68 0 0 Z " fill="#C8C8C5" transform="translate(916,574)"/>
<path d="M0 0 C4 1 4 1 4 1 Z " fill="#CFCDC9" transform="translate(531,560)"/>
<path d="M0 0 C0.66 0.33 1.32 0.66 2 1 C1.01 1 0.02 1 -1 1 C-0.67 0.67 -0.34 0.34 0 0 Z " fill="#61AE62" transform="translate(581,510)"/>
<path d="M0 0 C0.33 0.66 0.66 1.32 1 2 C0.34 1.67 -0.32 1.34 -1 1 C-0.67 0.67 -0.34 0.34 0 0 Z " fill="#CACAC7" transform="translate(901,574)"/>
<path d="M0 0 C0.66 0 1.32 0 2 0 C1.67 0.66 1.34 1.32 1 2 C0.67 1.34 0.34 0.68 0 0 Z " fill="#CACAC7" transform="translate(524,574)"/>
<path d="M0 0 C3 1 3 1 3 1 Z " fill="#CFCECA" transform="translate(740,560)"/>
<path d="M0 0 C0.66 0.66 1.32 1.32 2 2 C1.34 2 0.68 2 0 2 C0 1.34 0 0.68 0 0 Z " fill="#C8CBC5" transform="translate(676,548)"/>
<path d="M0 0 C3 1 3 1 3 1 Z " fill="#B6C3B8" transform="translate(843,528)"/>
<path d="M0 0 C3 1 3 1 3 1 Z " fill="#A9BEA6" transform="translate(811,528)"/>
<path d="M0 0 C3 1 3 1 3 1 Z " fill="#73B172" transform="translate(517,513)"/>
<path d="M0 0 C3 1 3 1 3 1 Z " fill="#59AD5D" transform="translate(477,511)"/>
<path d="M0 0 C0.66 0.66 1.32 1.32 2 2 C1.34 2 0.68 2 0 2 C0 1.34 0 0.68 0 0 Z " fill="#45A94A" transform="translate(550,489)"/>
<path d="" fill="#3FA446" transform="translate(0,0)"/>
<path d="" fill="#42A148" transform="translate(0,0)"/>
<path d="M0 0 C2 1 2 1 2 1 Z " fill="#C0C1BD" transform="translate(817,587)"/>
<path d="M0 0 C2 1 2 1 2 1 Z " fill="#BEBFBC" transform="translate(920,584)"/>
<path d="" fill="#C7C7C4" transform="translate(0,0)"/>
<path d="M0 0 C2 1 2 1 2 1 Z " fill="#CBCCC8" transform="translate(732,574)"/>
<path d="" fill="#C8C9C6" transform="translate(0,0)"/>
<path d="M0 0 C2 1 2 1 2 1 Z " fill="#CFCDC9" transform="translate(528,560)"/>
<path d="" fill="#CCCCC8" transform="translate(0,0)"/>
<path d="" fill="#CACCC7" transform="translate(0,0)"/>
<path d="" fill="#CACDC7" transform="translate(0,0)"/>
<path d="" fill="#ACC1AB" transform="translate(0,0)"/>
<path d="M0 0 C2 1 2 1 2 1 Z " fill="#B3C2B0" transform="translate(836,528)"/>
<path d="M0 0 C2 1 2 1 2 1 Z " fill="#A9BEA7" transform="translate(741,528)"/>
<path d="M0 0 C2 1 2 1 2 1 Z " fill="#A8BDA4" transform="translate(526,528)"/>
<path d="M0 0 C2 1 2 1 2 1 Z " fill="#A8BDA9" transform="translate(496,528)"/>
<path d="" fill="#59AB5B" transform="translate(0,0)"/>
<path d="" fill="#41A445" transform="translate(0,0)"/>
<path d="M0 0 C2 1 2 1 2 1 Z " fill="#45A84A" transform="translate(571,487)"/>
<path d="" fill="#41A647" transform="translate(0,0)"/>
<path d="M0 0 C2 1 2 1 2 1 Z " fill="#44A847" transform="translate(636,465)"/>
<path d="M0 0 C2 1 2 1 2 1 Z " fill="#45A649" transform="translate(557,464)"/>
<path d="" fill="#3DA042" transform="translate(0,0)"/>
<path d="M0 0 C2 1 2 1 2 1 Z " fill="#43A649" transform="translate(565,454)"/>
<path d="" fill="#616261" transform="translate(0,0)"/>
<path d="" fill="#44A146" transform="translate(0,0)"/>
<path d="" fill="#439F49" transform="translate(0,0)"/>
<path d="" fill="#429D47" transform="translate(0,0)"/>
<path d="" fill="#42A24A" transform="translate(0,0)"/>
<path d="" fill="#42A649" transform="translate(0,0)"/>
<path d="" fill="#C1C2BD" transform="translate(0,0)"/>
<path d="" fill="#BDC1BD" transform="translate(0,0)"/>
<path d="" fill="#43A548" transform="translate(0,0)"/>
<path d="" fill="#B7B9B8" transform="translate(0,0)"/>
<path d="" fill="#BEBFBC" transform="translate(0,0)"/>
<path d="" fill="#BFC0BD" transform="translate(0,0)"/>
<path d="" fill="#C0C1C0" transform="translate(0,0)"/>
<path d="" fill="#C0C3BD" transform="translate(0,0)"/>
<path d="" fill="#C0C1BD" transform="translate(0,0)"/>
<path d="" fill="#C0C1BE" transform="translate(0,0)"/>
<path d="" fill="#C0C2BE" transform="translate(0,0)"/>
<path d="" fill="#BFC1BE" transform="translate(0,0)"/>
<path d="" fill="#BFC2BF" transform="translate(0,0)"/>
<path d="" fill="#C0C2BE" transform="translate(0,0)"/>
<path d="" fill="#BFC3BD" transform="translate(0,0)"/>
<path d="" fill="#BFC1BD" transform="translate(0,0)"/>
<path d="" fill="#BEC3BD" transform="translate(0,0)"/>
<path d="" fill="#C0C2BF" transform="translate(0,0)"/>
<path d="" fill="#BABFB8" transform="translate(0,0)"/>
<path d="" fill="#B9BEB7" transform="translate(0,0)"/>
<path d="" fill="#BFC2BB" transform="translate(0,0)"/>
<path d="" fill="#52A953" transform="translate(0,0)"/>
<path d="" fill="#C6C6C2" transform="translate(0,0)"/>
<path d="" fill="#C6C9C5" transform="translate(0,0)"/>
<path d="" fill="#44A448" transform="translate(0,0)"/>
<path d="" fill="#C5C8C1" transform="translate(0,0)"/>
<path d="" fill="#C0C7BE" transform="translate(0,0)"/>
<path d="" fill="#4FA855" transform="translate(0,0)"/>
<path d="" fill="#44A549" transform="translate(0,0)"/>
<path d="" fill="#C9CBC7" transform="translate(0,0)"/>
<path d="" fill="#C8CAC7" transform="translate(0,0)"/>
<path d="" fill="#CACDC8" transform="translate(0,0)"/>
<path d="" fill="#C9C8C6" transform="translate(0,0)"/>
<path d="" fill="#CACCC7" transform="translate(0,0)"/>
<path d="" fill="#C5CAC2" transform="translate(0,0)"/>
<path d="" fill="#CDCEC9" transform="translate(0,0)"/>
<path d="" fill="#C8CAC6" transform="translate(0,0)"/>
<path d="" fill="#C9CDC9" transform="translate(0,0)"/>
<path d="" fill="#C6CBC5" transform="translate(0,0)"/>
<path d="" fill="#40A345" transform="translate(0,0)"/>
<path d="" fill="#CBCCC6" transform="translate(0,0)"/>
<path d="" fill="#CDCDC9" transform="translate(0,0)"/>
<path d="" fill="#CCCBCA" transform="translate(0,0)"/>
<path d="" fill="#CCCDC8" transform="translate(0,0)"/>
<path d="" fill="#CACBC7" transform="translate(0,0)"/>
<path d="" fill="#CBCDC8" transform="translate(0,0)"/>
<path d="" fill="#3FA446" transform="translate(0,0)"/>
<path d="" fill="#CCCCC8" transform="translate(0,0)"/>
<path d="" fill="#41A246" transform="translate(0,0)"/>
<path d="" fill="#D0CFC9" transform="translate(0,0)"/>
<path d="" fill="#CECCC9" transform="translate(0,0)"/>
<path d="" fill="#C9C9C6" transform="translate(0,0)"/>
<path d="" fill="#CBCDC9" transform="translate(0,0)"/>
<path d="" fill="#43A446" transform="translate(0,0)"/>
<path d="" fill="#42A446" transform="translate(0,0)"/>
<path d="" fill="#B1C6B0" transform="translate(0,0)"/>
<path d="" fill="#41A648" transform="translate(0,0)"/>
<path d="" fill="#CBCCC9" transform="translate(0,0)"/>
<path d="" fill="#42A447" transform="translate(0,0)"/>
<path d="" fill="#CACDC8" transform="translate(0,0)"/>
<path d="" fill="#CBCEC9" transform="translate(0,0)"/>
<path d="" fill="#CBCFC8" transform="translate(0,0)"/>
<path d="" fill="#C5CBC3" transform="translate(0,0)"/>
<path d="" fill="#C5CAC3" transform="translate(0,0)"/>
<path d="" fill="#BFC3BE" transform="translate(0,0)"/>
<path d="" fill="#CACDC7" transform="translate(0,0)"/>
<path d="" fill="#CACBC7" transform="translate(0,0)"/>
<path d="" fill="#B0C5AD" transform="translate(0,0)"/>
<path d="" fill="#C8CDC8" transform="translate(0,0)"/>
<path d="" fill="#C4CAC1" transform="translate(0,0)"/>
<path d="" fill="#C6C9C2" transform="translate(0,0)"/>
<path d="" fill="#C8C8C3" transform="translate(0,0)"/>
<path d="" fill="#C5CCC3" transform="translate(0,0)"/>
<path d="" fill="#C8CCC7" transform="translate(0,0)"/>
<path d="" fill="#49AC50" transform="translate(0,0)"/>
<path d="" fill="#C6CAC3" transform="translate(0,0)"/>
<path d="" fill="#C8CAC5" transform="translate(0,0)"/>
<path d="" fill="#ACC2AA" transform="translate(0,0)"/>
<path d="" fill="#C1C6B9" transform="translate(0,0)"/>
<path d="" fill="#43A047" transform="translate(0,0)"/>
<path d="" fill="#B6C5B5" transform="translate(0,0)"/>
<path d="" fill="#3FA344" transform="translate(0,0)"/>
<path d="" fill="#41A548" transform="translate(0,0)"/>
<path d="" fill="#B7C5B5" transform="translate(0,0)"/>
<path d="" fill="#B8C7B6" transform="translate(0,0)"/>
<path d="" fill="#B9C7B6" transform="translate(0,0)"/>
<path d="" fill="#BAC7B8" transform="translate(0,0)"/>
<path d="" fill="#B4C7B3" transform="translate(0,0)"/>
<path d="" fill="#A4C4A3" transform="translate(0,0)"/>
<path d="" fill="#B3C2B1" transform="translate(0,0)"/>
<path d="" fill="#41A548" transform="translate(0,0)"/>
<path d="" fill="#B6C7B0" transform="translate(0,0)"/>
<path d="" fill="#AEC5AD" transform="translate(0,0)"/>
<path d="" fill="#A0C19D" transform="translate(0,0)"/>
<path d="" fill="#43A746" transform="translate(0,0)"/>
<path d="" fill="#AAC1A6" transform="translate(0,0)"/>
<path d="" fill="#B5BEB5" transform="translate(0,0)"/>
<path d="" fill="#B8BEB5" transform="translate(0,0)"/>
<path d="" fill="#B4BFB3" transform="translate(0,0)"/>
<path d="" fill="#B4C4B0" transform="translate(0,0)"/>
<path d="" fill="#AFBFA8" transform="translate(0,0)"/>
<path d="" fill="#A8BFA6" transform="translate(0,0)"/>
<path d="" fill="#A8C0A9" transform="translate(0,0)"/>
<path d="" fill="#A8BCA6" transform="translate(0,0)"/>
<path d="" fill="#A2B9A1" transform="translate(0,0)"/>
<path d="" fill="#A3BCA1" transform="translate(0,0)"/>
<path d="" fill="#A3B8A1" transform="translate(0,0)"/>
<path d="" fill="#A8BFA5" transform="translate(0,0)"/>
<path d="" fill="#A7BAA7" transform="translate(0,0)"/>
<path d="" fill="#A9BDA8" transform="translate(0,0)"/>
<path d="" fill="#44A94A" transform="translate(0,0)"/>
<path d="" fill="#40A545" transform="translate(0,0)"/>
<path d="" fill="#76B376" transform="translate(0,0)"/>
<path d="" fill="#75B174" transform="translate(0,0)"/>
<path d="" fill="#77B276" transform="translate(0,0)"/>
<path d="" fill="#74B072" transform="translate(0,0)"/>
<path d="" fill="#78B475" transform="translate(0,0)"/>
<path d="" fill="#3FA546" transform="translate(0,0)"/>
<path d="" fill="#5CAB5E" transform="translate(0,0)"/>
<path d="" fill="#64AE61" transform="translate(0,0)"/>
<path d="" fill="#61AE61" transform="translate(0,0)"/>
<path d="" fill="#5EAD5C" transform="translate(0,0)"/>
<path d="" fill="#54AD56" transform="translate(0,0)"/>
<path d="" fill="#42A448" transform="translate(0,0)"/>
<path d="" fill="#40A246" transform="translate(0,0)"/>
<path d="" fill="#4CAB50" transform="translate(0,0)"/>
<path d="" fill="#4CA74F" transform="translate(0,0)"/>
<path d="" fill="#51AC54" transform="translate(0,0)"/>
<path d="" fill="#4BAB4E" transform="translate(0,0)"/>
<path d="" fill="#45A949" transform="translate(0,0)"/>
<path d="" fill="#48A74D" transform="translate(0,0)"/>
<path d="" fill="#4AA84D" transform="translate(0,0)"/>
<path d="" fill="#4DA94E" transform="translate(0,0)"/>
<path d="" fill="#46A648" transform="translate(0,0)"/>
<path d="" fill="#4AA74B" transform="translate(0,0)"/>
<path d="" fill="#4AA74C" transform="translate(0,0)"/>
<path d="" fill="#42A544" transform="translate(0,0)"/>
<path d="" fill="#3FA445" transform="translate(0,0)"/>
<path d="" fill="#49A949" transform="translate(0,0)"/>
<path d="" fill="#47A94B" transform="translate(0,0)"/>
<path d="" fill="#41A744" transform="translate(0,0)"/>
<path d="" fill="#44A64A" transform="translate(0,0)"/>
<path d="" fill="#45AB4A" transform="translate(0,0)"/>
<path d="" fill="#4AA74D" transform="translate(0,0)"/>
<path d="" fill="#44A449" transform="translate(0,0)"/>
<path d="" fill="#43A948" transform="translate(0,0)"/>
<path d="" fill="#46AC48" transform="translate(0,0)"/>
<path d="" fill="#44AA4A" transform="translate(0,0)"/>
<path d="" fill="#44A347" transform="translate(0,0)"/>
<path d="" fill="#41A247" transform="translate(0,0)"/>
<path d="" fill="#47A548" transform="translate(0,0)"/>
<path d="" fill="#46A849" transform="translate(0,0)"/>
<path d="" fill="#46A74A" transform="translate(0,0)"/>
<path d="" fill="#44A74A" transform="translate(0,0)"/>
<path d="" fill="#47A948" transform="translate(0,0)"/>
<path d="" fill="#41A647" transform="translate(0,0)"/>
<path d="" fill="#47A84A" transform="translate(0,0)"/>
<path d="" fill="#45A848" transform="translate(0,0)"/>
<path d="" fill="#40A54B" transform="translate(0,0)"/>
<path d="" fill="#43A449" transform="translate(0,0)"/>
<path d="" fill="#46A64B" transform="translate(0,0)"/>
<path d="" fill="#41A247" transform="translate(0,0)"/>
<path d="" fill="#48A74B" transform="translate(0,0)"/>
<path d="" fill="#48AB4A" transform="translate(0,0)"/>
<path d="" fill="#45AB47" transform="translate(0,0)"/>
<path d="" fill="#43A747" transform="translate(0,0)"/>
<path d="" fill="#43A848" transform="translate(0,0)"/>
<path d="" fill="#47AB49" transform="translate(0,0)"/>
<path d="" fill="#43A647" transform="translate(0,0)"/>
<path d="" fill="#43A646" transform="translate(0,0)"/>
<path d="" fill="#44AA49" transform="translate(0,0)"/>
<path d="" fill="#46A748" transform="translate(0,0)"/>
<path d="" fill="#43A443" transform="translate(0,0)"/>
<path d="" fill="#44AB47" transform="translate(0,0)"/>
<path d="" fill="#43A848" transform="translate(0,0)"/>
<path d="" fill="#42A849" transform="translate(0,0)"/>
<path d="" fill="#42A544" transform="translate(0,0)"/>
<path d="" fill="#44A846" transform="translate(0,0)"/>
<path d="" fill="#43A747" transform="translate(0,0)"/>
<path d="" fill="#42A248" transform="translate(0,0)"/>
<path d="" fill="#43A748" transform="translate(0,0)"/>
<path d="" fill="#42A348" transform="translate(0,0)"/>
<path d="" fill="#44A548" transform="translate(0,0)"/>
<path d="" fill="#48A649" transform="translate(0,0)"/>
<path d="" fill="#4BA146" transform="translate(0,0)"/>
<path d="" fill="#3FA045" transform="translate(0,0)"/>
<path d="" fill="#43A246" transform="translate(0,0)"/>
<path d="" fill="#44A848" transform="translate(0,0)"/>
<path d="" fill="#42A649" transform="translate(0,0)"/>
<path d="" fill="#41A547" transform="translate(0,0)"/>
<path d="" fill="#42A448" transform="translate(0,0)"/>
<path d="" fill="#3FA446" transform="translate(0,0)"/>
<path d="" fill="#40A246" transform="translate(0,0)"/>
<path d="" fill="#42A046" transform="translate(0,0)"/>
<path d="" fill="#449C47" transform="translate(0,0)"/>
</svg>
